<?xml version="1.0" encoding="utf-8"?>
<!-- Generator: Adobe Illustrator 24.2.3, SVG Export Plug-In . SVG Version: 6.00 Build 0)  -->
<svg version="1.1" id="Layer_1" xmlns="http://www.w3.org/2000/svg" xmlns:xlink="http://www.w3.org/1999/xlink" x="0px" y="0px"
	 viewBox="0 0 2000 2000" style="enable-background:new 0 0 2000 2000;" xml:space="preserve">
<path d="M1186.08,725.12c0-112.12,0-224.24,0-336.37c0-2.09,0.02-4.18,0.07-6.27c0.03-1.36,0.85-2.08,2.12-2.19
	c1.32-0.12,2.66-0.11,3.99-0.11c46.75,0,93.5,0,140.25,0c0.95,0,1.9-0.02,2.85,0.03c2.79,0.16,3.12,0.5,3.2,3.48
	c0.05,2.09,0.02,4.18,0.02,6.27c0,224.05-0.01,448.11-0.01,672.16c0,1.9,0,3.8,0.04,5.7c0.02,0.96,0.14,1.97,1.28,2.24
	c1.3,0.31,2.67,0.51,3.75-0.53c0.35-0.34,0.55-1,0.57-1.52c0.08-1.9,0.07-3.8,0.07-5.7c0-76.59-0.01-153.17,0.01-229.76
	c0-9.08-0.99-7.99,7.77-8c50.55-0.03,101.1-0.02,151.65-0.01c7.66,0,6.97-0.61,6.98,7.13c0.01,76.78,0,153.55,0,230.33
	c0,1.71-0.04,3.42,0.02,5.13c0.09,2.82,0.46,3.13,3.46,3.15c0.57,0,1.14-0.02,1.71-0.05c1.34-0.08,2.11-0.84,2.17-2.14
	c0.1-2.09,0.1-4.18,0.1-6.27c0-120.48-0.01-240.97,0.01-361.45c0-10.07-1.22-8.89,8.68-8.9c34.59-0.04,69.17-0.02,103.76-0.02
	c1.52,0,3.04-0.03,4.56,0.01c4.29,0.11,4.41,0.19,4.43,4.56c0.03,8.36,0,16.72,0,25.08c0,31.74,0,63.47,0,95.21
	c0,1.33-0.03,2.66,0.01,3.99c0.1,2.96,0.27,3.18,3.33,3.24c3.99,0.08,7.98,0.01,11.97,0.1c1.75,0.04,2.35,0.68,2.47,2.46
	c0.14,2.08,0.14,4.17,0.26,6.26c0.05,0.84,0.63,1.32,1.44,1.51c0.18,0.04,0.37,0.08,0.56,0.11c1.48,0.24,3.27-0.39,4.39,0.75
	c1.46,1.49,0.75,3.59,0.75,5.43c0.04,30.98,0.03,61.95,0.03,92.93c0,1.52-0.03,3.04,0.02,4.56c0.09,2.95,0.46,3.32,3.23,3.38
	c3.49,0.08,3.86-0.26,3.95-3.81c0.05-1.71,0.02-3.42,0.02-5.13c0-66.13,0-132.27,0-198.4c0-2.09,0-4.18,0.1-6.27
	c0.06-1.26,0.7-2.14,2.1-2.19c1.14-0.04,2.28-0.06,3.42-0.06c20.14,0,40.29,0,60.43,0c0.76,0,1.52-0.02,2.28,0.01
	c2.95,0.11,3.15,0.3,3.25,3.36c0.05,1.71,0.02,3.42,0.02,5.13c0,73.73,0,147.47,0,221.2c0,1.9,0.03,3.8,0.07,5.7
	c0.03,1.36,0.85,2.07,2.14,2.15c1.71,0.1,3.42,0.11,5.13,0.11c21.28,0.01,42.57,0.01,63.85,0c6.94,0,6.47-0.23,6.47,6.55
	c0.01,61.95,0,123.9,0,185.86c0,1.14,0.03,2.28-0.04,3.42c-0.14,2.42-0.74,2.96-3.17,2.9c-2.15-0.05-2.74-0.55-2.82-2.64
	c-0.08-1.9-0.05-3.8-0.05-5.7c0-56.82,0-113.64,0-170.46c0-1.52,0.01-3.04,0-4.56c-0.04-7.19,0.62-6.61-6.9-6.61
	c-21.47-0.01-42.95,0.01-64.42-0.01c-6.84,0-6.35,0.54-6.35-6.57c-0.01-74.3,0-148.61-0.01-222.91c0-1.9,0.03-3.8-0.05-5.7
	c-0.09-2.13-0.55-2.54-2.82-2.68c-1.14-0.07-2.28-0.05-3.42-0.05c-15.58,0-31.17,0-46.75,0c-0.76,0-1.52-0.01-2.28,0.01
	c-3.62,0.13-3.74,0.24-3.82,3.96c-0.03,1.52-0.01,3.04-0.01,4.56c0,66.7,0.01,133.41-0.01,200.11c0,8.27,0.79,7.36-7.24,7.41
	c-3.42,0.02-6.84-0.02-10.26-0.06c-1.37-0.02-2.09-0.84-2.16-2.12c-0.11-1.89-0.13-3.8-0.13-5.7c-0.01-30.22-0.01-60.43-0.01-90.65
	c0-1.52,0-3.04-0.01-4.56c-0.02-3.31-0.36-4.1-3.88-3.93c-0.57,0.03-1.14-0.01-1.71-0.07c-1.1-0.11-1.7-0.76-1.75-1.85
	c-0.09-2.28-0.11-4.55-0.21-6.83c-0.04-0.83-0.51-1.49-1.37-1.51c-2.84-0.05-5.69-0.05-8.53-0.01c-0.89,0.01-1.32,0.69-1.37,1.51
	c-0.09,1.32-0.12,2.66-0.12,3.98c-0.01,75.44-0.01,150.89,0,226.33c0,1.14-0.02,2.28,0.04,3.42c0.11,1.9,0.57,2.45,2.32,2.54
	c1.9,0.09,3.8,0.07,5.7,0.07c37.63,0,75.26,0,112.88,0c1.52,0,3.05-0.07,4.56,0.02c1.46,0.09,3.4-0.62,4.23,0.87
	c1.13,2.03,0.68,4.42,0.26,6.65c-0.07,0.37-0.84,0.83-1.32,0.86c-1.89,0.14-3.79,0.18-5.69,0.18c-55.11,0.01-110.22,0-165.33,0
	c-1.9,0-3.8,0.02-5.7,0.06c-1.38,0.03-2.06,0.83-2.1,2.14c-0.06,1.9-0.06,3.8-0.06,5.7c0,124.28,0,248.57,0,372.85
	c0,2.09-0.03,4.18-0.17,6.26c-0.03,0.45-0.49,1.08-0.91,1.26c-2.44,1.06-4.93,0.28-6.26-2.05c-6.22-10.88-12.42-21.78-18.59-32.68
	c-28.26-49.91-56.51-99.82-84.78-149.73c-16.1-28.42-32.2-56.84-48.32-85.25c-0.93-1.65-1.96-3.24-3-4.82
	c-0.07-0.11-0.74-0.02-0.93,0.18c-0.23,0.24-0.34,0.69-0.35,1.05c-0.05,1.9-0.08,3.8-0.08,5.7c0,113.45,0,226.91,0,340.36
	c0,2.09-0.01,4.18-0.13,6.26c-0.08,1.28-0.84,2.05-2.21,2.06c-0.95,0.01-1.9,0.04-2.85,0.04c-408.2-0.01-816.4-0.02-1224.6-0.04
	c-2.28,0-4.56,0.03-6.84-0.07c-1.69-0.07-2.21-0.71-2.35-2.53c-0.01-0.19-0.02-0.38-0.02-0.57c0-8.93-0.03-17.86,0.02-26.8
	c0.02-2.83,2.35-4.17,5.04-2.97c0.43,0.19,0.87,0.8,0.95,1.27c0.2,1.11,0.24,2.26,0.25,3.4c0.03,4.37,0.01,8.74,0.02,13.11
	c0,1.33,0.01,2.66,0.09,3.99c0.08,1.28,0.69,2.12,2.1,2.14c1.71,0.02,3.42,0.05,5.13,0.06c37.06,0.01,74.11,0.01,111.17,0.01
	c169.13,0.01,338.27,0.01,507.4,0.01c2.28,0,4.56,0.01,6.84-0.05c1.57-0.04,1.92-0.72,1.16-2.23c-0.68-1.36-1.44-2.68-2.18-4.01
	c-34.73-62.61-69.44-125.22-104.2-187.81c-3.52-6.34-1.8-5.48-9.04-5.49c-21.47-0.04-42.95-0.02-64.42-0.01
	c-1.52,0-3.04,0.02-4.56,0.1c-1.07,0.06-1.74,0.7-1.78,1.8c-0.07,1.71-0.1,3.42-0.1,5.13c-0.01,37.44,0,74.87,0,112.31
	c0,1.71,0.03,3.42-0.02,5.13c-0.09,3-0.4,3.3-3.25,3.32c-3.16,0.02-3.47-0.27-3.56-3.59c-0.04-1.33-0.01-2.66-0.01-3.99
	c0-92.93-0.01-185.86,0.01-278.79c0-8.35-0.94-7.57,7.66-7.58c25.08-0.02,50.17-0.03,75.25,0.01c7.03,0.01,14.04,0.4,20.97,1.8
	c24.91,5.03,41.13,20.03,49.93,43.52c3.09,8.24,4.68,16.85,5.36,25.57c1.05,13.51,0.62,26.95-2.96,40.15
	c-1.75,6.44-4.11,12.64-7.32,18.48c-11.34,20.64-29.05,32-52.06,35.59c-1.12,0.18-2.26,0.25-3.37,0.47c-0.65,0.13-0.9,0.76-0.67,1.3
	c0.6,1.39,1.27,2.75,2,4.08c18.61,33.55,37.22,67.09,55.85,100.62c16.5,29.72,33.02,59.43,49.53,89.14
	c0.65,1.16,1.23,2.36,1.92,3.49c0.63,1.03,1.57,1.58,2.84,1.53c1.33-0.05,2.66,0.01,3.99,0.01c189.66,0,379.32,0,568.97-0.01
	c7.61,0,7.01,0.88,7.01-7.07c0.01-116.68,0.01-233.37,0.02-350.05c0-2.28,0.03-4.56,0.18-6.83c0.07-1.03,0.83-1.59,1.9-1.76
	c2.85-0.47,4.49,0.78,5.87,3.27c7.3,13.11,14.76,26.12,22.16,39.17c32.67,57.67,65.34,115.34,98.01,173.01
	c10.58,18.67,21.15,37.34,31.73,56.02c0.65,1.16,1.3,2.32,2.01,3.44c0.17,0.26,0.59,0.44,0.92,0.5c0.48,0.09,0.69-0.21,0.69-0.69
	c0.02-1.71,0.08-3.42,0.08-5.12c0-118.96,0-237.93-0.01-356.89c0-8.18,0.76-7.39-7.28-7.39c-260.34-0.01-520.69-0.01-781.03-0.01
	c-2.28,0-4.56-0.03-6.84-0.1c-1.07-0.03-1.75-0.64-1.84-1.74c-0.07-0.94-0.11-1.9-0.1-2.84c0.03-3.64,0.17-3.78,3.9-3.88
	c2.28-0.06,4.56-0.04,6.84-0.1c1.35-0.04,2.05-0.81,2.11-2.14c0.04-0.95,0.06-1.9,0.06-2.85c0-11.78,0.01-23.56,0-35.35
	c0-1.14-0.05-2.28-0.13-3.41c-0.06-0.88-0.63-1.36-1.47-1.41c-1.33-0.08-2.66-0.13-3.98-0.13c-79.44-0.01-158.87-0.01-238.31,0
	c-6.3,0-5.88-0.31-5.88,5.86c-0.01,11.21,0,22.42,0,33.64c0,1.14-0.02,2.28,0.06,3.42c0.11,1.76,0.61,2.33,2.5,2.38
	c3.8,0.1,7.6,0.06,11.4,0.09c1.71,0.01,3.42,0,5.13,0.09c1.24,0.06,2.24,0.59,2.28,2c0.21,6.63,0.64,6.51-5.76,6.51
	c-22.8-0.01-45.61,0-68.41,0c-80.2,0-160.39,0.01-240.59-0.03c-3.38,0-6.81,0.59-10.14-0.54c-1.62-3.44-0.7-7.09-0.72-10.63
	c-0.1-23.56-0.05-47.13-0.05-70.69c0-1.52,0.03-3.04-0.04-4.56c-0.1-2.1-0.46-2.58-2.8-2.59c-4.27-0.02-4.39-0.25-4.37-4.56
	c0.03-6.2,0.26-5.92-5.87-5.92c-8.17,0-16.34,0-24.51,0c-0.57,0-1.14-0.01-1.71,0c-4.17,0.09-4.17,0.09-4.27,4.03
	c-0.04,1.52-0.04,3.04-0.11,4.56c-0.05,1.11-0.74,1.63-1.81,1.79c-1.64,0.24-3.67-0.61-4.86,0.8c-1.28,1.53-0.65,3.66-0.65,5.53
	c-0.02,38.2-0.02,76.4-0.02,114.59c0,1.9,0,3.8-0.14,5.69c-0.08,0.97-0.63,1.81-1.77,1.87c-1.3,0.07-2.7,0.44-3.73-0.68
	c-0.34-0.37-0.49-1.02-0.51-1.56c-0.08-1.52-0.06-3.04-0.06-4.56c0-41.05,0-82.1,0-123.14c0-0.95,0.01-1.9,0-2.85
	c-0.02-3.62,0.24-4.02,3.71-4.06c0.57-0.01,1.14-0.05,1.7-0.12c1.08-0.14,1.72-0.84,1.78-1.87c0.13-2.08,0.08-4.18,0.21-6.26
	c0.13-2.04,0.69-2.57,2.88-2.61c3.61-0.06,7.22-0.02,10.83-0.03c1.52-0.01,3.04-0.03,4.56-0.09c1.1-0.05,1.72-0.69,1.76-1.78
	c0.06-1.71,0.08-3.42,0.08-5.13c0-31.93-0.01-63.85,0.01-95.78c0-7.51-0.64-6.86,6.63-6.87c21.09-0.02,42.19-0.01,63.28,0
	c1.52,0,3.04,0.03,4.55,0.11c1.1,0.06,1.7,0.76,1.75,1.83c0.08,1.71,0.09,3.42,0.09,5.13c0.01,17.29,0.01,34.59,0,51.88
	c0,5-0.19,5.04,5,5.03c17.86-0.01,35.73,0,53.59,0c1.14,0,2.28-0.03,3.41-0.12c1.11-0.09,1.66-0.82,1.69-1.88
	c0.06-1.9,0.07-3.8,0.07-5.7c0-69.55,0-139.11,0-208.66c0-1.71-0.04-3.42,0.02-5.13c0.09-2.85,0.35-3.08,3.43-3.18
	c1.33-0.04,2.66-0.01,3.99-0.01c30.03,0,60.05,0,90.08,0c1.14,0,2.28-0.02,3.42,0.01c3.67,0.1,3.76,0.19,3.85,3.95
	c0.04,1.52,0.01,3.04,0.01,4.56c0,44.09-0.02,88.18,0.03,132.27c0,2.99-0.58,6.05,0.49,8.99c3.07,1.42,6.32,0.58,9.48,0.68
	c4.75,0.15,9.5,0.07,14.25,0c2.12-0.03,2.6-0.55,2.7-2.75c0.09-1.9,0.06-3.8,0.06-5.7c0-54.54-0.01-109.08-0.01-163.62
	c0-8.55-0.52-7.71,7.62-7.75c4.94-0.02,9.89-0.11,14.82,0.04c2.54,0.08,4.21-0.92,5.8-2.81c11.27-13.36,22.62-26.66,33.95-39.97
	c8.13-9.55,16.26-19.1,24.39-28.65c0.62-0.72,1.23-1.45,1.91-2.12c0.63-0.63,1.38-0.61,1.98,0.01c0.8,0.81,1.52,1.7,2.26,2.57
	c19.1,22.42,38.2,44.84,57.29,67.26c0.37,0.43,0.75,0.86,1.07,1.33c1.18,1.71,2.77,2.38,4.85,2.35c5.51-0.08,11.02-0.02,16.53-0.02
	c6.5,0,6.42-0.36,6.42,6.67c-0.01,73.73-0.01,147.47,0,221.2c0,1.9,0.02,3.8,0.08,5.7c0.05,1.31,0.73,2.11,2.11,2.11
	c5.7,0.03,11.4,0.07,17.1,0.05c1.08,0,1.72-0.69,1.76-1.79c0.06-1.71,0.08-3.42,0.08-5.13c0-34.59-0.01-69.17,0.01-103.76
	c0-7.54-0.69-6.79,6.62-6.84c3.61-0.02,7.22,0.03,10.83-0.02c3.19-0.05,3.48-0.32,3.52-3.69c0.07-5.89,0.01-11.78,0.04-17.67
	c0.04-8.45-0.72-7.61,7.66-7.65c5.32-0.03,10.64,0.03,15.96-0.05c2.96-0.04,3.31-0.39,3.33-3.28c0.05-7.79,0.02-15.58,0.03-23.37
	c0-1.52-0.03-3.04,0.04-4.56c0.1-2.05,0.66-2.5,2.9-2.53c2.73-0.04,3.34,0.45,3.36,3.3c0.07,8.17,0.03,16.34,0.04,24.51
	c0.01,6.12-0.23,5.97,5.88,5.98c4.56,0.01,9.12,0,13.68,0c1.33,0,2.66-0.03,3.99,0.04c2.73,0.13,3.03,0.4,3.12,2.94
	c0.06,1.71,0.03,3.42,0.03,5.13c0.01,5.89-0.03,11.78,0.03,17.67c0.03,2.95,0.29,3.19,3.36,3.24c3.99,0.07,7.98,0.02,11.97,0.03
	c1.33,0,2.66-0.02,3.99,0.09c1.07,0.09,1.73,0.79,1.78,1.86c0.09,1.9,0.13,3.8,0.13,5.69c0.01,34.78,0,69.55,0.01,104.33
	c0,1.9,0.01,3.8,0.08,5.7c0.05,1.36,0.85,2.02,2.2,2.04c1.33,0.01,2.66,0.03,3.99,0.03c10.26,0,20.52,0,30.79,0
	c1.14,0,2.28,0.03,3.42-0.03c2.43-0.12,2.87-0.51,2.9-3.14c0.06-5.89,0.03-11.78,0.03-17.67c0-1.71-0.03-3.42,0.05-5.13
	c0.09-2.23,0.48-2.62,2.71-2.71c1.71-0.07,3.42-0.04,5.13-0.04c20.9,0,41.81,0,62.71,0c1.52,0,3.04,0.03,4.56-0.05
	c1.87-0.1,2.42-0.6,2.51-2.35c0.09-1.71,0.06-3.42,0.06-5.13c0-30.98-0.01-61.95,0.01-92.93c0.01-8.17-0.79-7.37,7.26-7.4
	c6.65-0.03,13.3,0.01,19.95-0.05c2.35-0.02,2.73-0.42,2.82-2.58c0.08-1.9,0.06-3.8,0.06-5.7c0-75.26,0-150.51,0-225.76
	c0-1.71-0.04-3.42,0.02-5.13c0.05-1.49-0.42-3.2,0.8-4.34c1.02-0.95,2.55-0.52,3.86-0.56c1.31-0.04,2.11-0.74,2.7-1.77
	c0.75-1.32,1.45-2.67,2.17-4.01c9.26-17.23,18.5-34.47,27.81-51.67c3.15-5.82,2.07-5.09,8.71-5.15c2.66-0.02,5.32-0.02,7.98-0.07
	c1.31-0.03,2.14-0.69,2.19-2.06c0.06-1.52,0.08-3.04,0.08-4.56c0.01-7.98,0.01-15.96,0.03-23.94c0-0.93-0.14-1.98,0.69-2.64
	c1.13-0.92,2.5-0.7,3.8-0.45c1.11,0.21,1.48,1.06,1.51,2.08c0.04,1.52,0.05,3.04,0.05,4.56c0.01,7.98-0.02,15.96,0.03,23.94
	c0.02,2.63,0.43,3.02,2.89,3.12c1.71,0.07,3.42,0.02,5.13,0.03c6.62,0.05,5.31-0.57,8.63,5.29c0.84,1.49,1.63,3.01,2.44,4.51
	c8.73,16.22,17.45,32.44,26.17,48.67c0.18,0.33,0.34,0.68,0.49,1.03c0.9,2.09,2.19,3.25,4.76,3.22c2.98-0.04,3.13,0.35,3.23,3.29
	c0.06,1.9,0.03,3.8,0.03,5.7c0,75.83-0.01,151.65,0.01,227.48c0,8.4-0.99,7.5,7.68,7.55c6.46,0.04,12.92-0.03,19.38,0.04
	c2.86,0.03,3.18,0.43,3.28,3.39c0.06,1.71,0.03,3.42,0.03,5.13c0,30.98,0,61.95,0,92.93c0,6.94-0.51,6.38,6.53,6.38
	c23.18,0.01,46.37,0.01,69.55,0.01c1.33,0,2.66,0,3.99,0c6.35,0.02,6.04-0.41,6.06,6.33c0.01,1.71,0,3.42,0,5.13
	c0,56.82-0.01,113.64,0.01,170.46c0,9.35-0.95,8.25,8.12,8.33c5.34,0.05,5.31,0.02,5.28-5.4c-0.01-1.33,0-2.66,0-3.99
	C1186.08,948.99,1186.08,837.05,1186.08,725.12C1186.08,725.12,1186.08,725.12,1186.08,725.12z M533.96,1006.37
	c1.45-0.92,1.64-2.25,2-3.52c1.5-5.29,3.22-10.53,4.5-15.88c1.75-7.33,5.12-13.85,9.2-20.07c3.45-5.25,7.28-10.2,11.55-14.81
	c5.57-6.01,11.63-11.47,18.28-16.24c1.57-1.12,2.33-2.38,2.19-4.26c-0.04-0.57-0.02-1.14,0.01-1.71c0.16-3.03,0.37-3.27,3.26-3.4
	c1.52-0.07,3.04-0.11,4.56-0.01c2.93,0.18,5.6-0.52,8.19-1.91c3.01-1.61,6.1-3.07,9.22-4.45c13.27-5.85,27.08-9.81,41.47-11.72
	c2.82-0.37,5.65-0.69,8.47-1.08c1.25-0.17,2.1-0.86,2.13-2.22c0.04-1.71,0.06-3.42,0.06-5.13c0-71.04,0-142.08,0-213.13
	c0-1.33,0.03-2.66-0.01-3.99c-0.09-3.09-0.24-3.23-3.23-3.34c-0.95-0.03-1.9-0.02-2.85-0.02c-51.48,0-102.95,0-154.43,0
	c-6.31,0-5.91-0.38-5.91,5.81c0,90.42,0,180.83,0,271.25c0,1.33,0.04,2.66,0.1,3.98c0.04,0.81,0.46,1.43,1.2,1.77
	c1.72,0.8,3.47,1.54,5.18,2.36c9.05,4.29,16.87,10.2,23.35,17.85c4.59,5.42,8.22,11.36,9.9,18.37
	C532.78,1002.71,533.41,1004.49,533.96,1006.37z M1524.48,885.11c0,59.64,0,119.28,0,178.93c0,6.1-0.46,6.07,5.75,6.07
	c32.48,0,64.96,0,97.44-0.01c1.32,0,2.65-0.09,3.97-0.22c0.85-0.08,1.38-0.67,1.42-1.5c0.1-2.08,0.18-4.17,0.18-6.26
	c0-115.29,0-230.59-0.01-345.88c0-3.8,0.03-7.6-0.01-11.4c-0.06-4.45-0.16-4.53-4.36-4.61c-0.95-0.02-1.9-0.01-2.85-0.01
	c-31.53,0-63.06-0.02-94.59,0c-7.73,0-6.93-0.72-6.93,7.11C1524.47,766.59,1524.48,825.85,1524.48,885.11z M360.69,889.63
	c0,57.37,0,114.74,0,172.12c0,1.71-0.04,3.42,0.03,5.13c0.11,2.92,0.47,3.36,3.33,3.39c6.65,0.07,13.3,0.04,19.95,0.04
	c1.71,0,3.42-0.02,5.12-0.11c1.36-0.07,1.99-0.89,2.03-2.22c0.02-0.57,0.04-1.14,0.04-1.71c0-12.54,0-25.08,0-37.61
	c0-0.57-0.03-1.14-0.05-1.71c-0.05-1.43-0.92-1.95-2.22-1.98c-1.14-0.02-2.28-0.04-3.42-0.04c-4.18-0.02-8.36-0.02-12.54-0.05
	c-1.29-0.01-2.21-0.59-2.27-1.99c-0.06-1.52-0.05-3.04-0.01-4.56c0.04-1.36,0.87-2.07,2.18-2.09c3.23-0.06,6.46-0.01,9.69-0.08
	c2.84-0.06,3.09-0.25,3.92-3.09c1.34-4.55,2.63-9.11,3.87-13.69c0.95-3.51,2.39-6.79,4.33-9.86c6.99-11.08,16.65-19.11,28.33-24.82
	c8.43-4.12,17.33-6.63,26.62-7.88c3.06-0.41,3.17-0.58,3.26-3.46c0.06-1.71,0.02-3.42,0.02-5.13c0-60.6,0-121.2,0-181.81
	c0-17.48,0-34.96,0-52.43c0-5.02,0.16-4.92-5.08-4.92c-27.36,0-54.71,0-82.07,0.01c-1.14,0-2.28,0.03-3.41,0.15
	c-0.82,0.08-1.43,0.63-1.49,1.45c-0.13,1.89-0.17,3.79-0.17,5.69C360.68,774.13,360.69,831.88,360.69,889.63z M1504.22,951.8
	c0-37.22,0.01-74.45-0.01-111.67c0-7.49,0.68-6.69-6.73-6.69c-46.72-0.02-93.44-0.02-140.15,0c-7.62,0-6.97-0.72-6.97,7.11
	c-0.01,74.07-0.01,148.13,0,222.2c0,7.82-0.73,7.36,7.41,7.36c46.34,0.01,92.68,0,139.01,0c1.14,0,2.28,0.02,3.42-0.01
	c3.77-0.11,3.92-0.25,4.01-3.77c0.04-1.52,0.01-3.04,0.01-4.56C1504.22,1025.11,1504.22,988.45,1504.22,951.8z M997.78,772.12
	c15.2,0,30.39,0,45.59,0c1.52,0,3.04-0.01,4.56-0.06c1.33-0.05,2.11-0.74,2.11-2.12c0.01-5.32,0.01-10.64-0.02-15.95
	c-0.01-1.4-0.91-2.05-2.18-2.09c-2.47-0.08-4.94-0.04-7.41-0.11c-3.68-0.1-3.86-0.3-3.89-3.91c-0.01-0.95,0.03-1.9,0.09-2.84
	c0.08-1.14,0.85-1.69,1.87-1.72c3.04-0.1,6.08-0.05,9.11-0.16c1.82-0.06,2.4-0.61,2.41-2.44c0.06-7.6,0.07-15.19,0.02-22.79
	c-0.01-2.27-0.5-2.72-2.65-2.79c-2.85-0.09-5.7-0.02-8.55-0.11c-1.78-0.06-2.21-0.59-2.28-2.52c-0.05-1.33,0-2.66,0.02-3.99
	c0.02-1.41,0.88-2.06,2.15-2.11c2.66-0.1,5.32-0.05,7.97-0.14c2.91-0.1,3.33-0.47,3.36-3.29c0.06-5.32,0.09-10.64,0-15.95
	c-0.05-2.62,1.06-5.77-0.64-7.72c-1.79-2.06-5.01-0.77-7.59-0.85c-5.49-0.19-5.62-0.23-5.28-5.92c0.12-2.08,0.57-2.57,2.81-2.66
	c2.85-0.11,5.7-0.07,8.54-0.17c1.3-0.04,2.12-0.78,2.12-2.14c0.02-7.79,0.05-15.57,0.02-23.36c-0.01-1.77-0.63-2.34-2.44-2.4
	c-2.85-0.09-5.7-0.03-8.54-0.14c-0.7-0.03-1.55-0.31-2.03-0.79c-0.81-0.8-0.75-6.42,0.07-7.13c0.52-0.44,1.35-0.69,2.05-0.71
	c2.85-0.1,5.7-0.03,8.54-0.12c1.82-0.06,2.33-0.56,2.35-2.44c0.06-5.89,0.08-11.78,0.04-17.66c-0.06-8.51,1.07-7.61-7.54-7.64
	c-6.59-0.02-6.03,0.02-5.97-6.39c0-0.19,0.02-0.38,0.04-0.57c0.11-1.09,0.73-1.75,1.81-1.78c2.66-0.08,5.32-0.05,7.97-0.12
	c3.44-0.08,3.65-0.23,3.69-3.49c0.06-5.51,0.07-11.02,0.01-16.53c-0.09-9.17,1.21-8.09-8.2-8.18c-5.54-0.05-5.69-0.22-5.32-5.84
	c0.12-1.9,0.54-2.45,2.32-2.52c2.66-0.1,5.32-0.02,7.98-0.1c2.82-0.09,3.16-0.42,3.21-3.43c0.06-4.56,0.02-9.12,0.03-13.68
	c0-5.71,0.28-5.53-5.66-5.53c-30.77,0-61.54,0-92.31,0.01c-1.33,0-2.66,0.03-3.98,0.1c-1.12,0.06-1.72,0.76-1.72,1.83
	c-0.04,6.08-0.07,12.15-0.03,18.23c0.01,1.87,0.55,2.38,2.39,2.44c2.85,0.1,5.7,0.03,8.54,0.13c1.73,0.06,2.31,0.7,2.4,2.49
	c0.06,1.32,0.01,2.66-0.06,3.98c-0.06,1.11-0.82,1.74-1.85,1.78c-2.66,0.1-5.32,0.06-7.97,0.13c-3.1,0.08-3.45,0.35-3.47,3.14
	c-0.05,7.41-0.04,14.82,0.01,22.22c0.02,2.38,0.38,2.71,2.6,2.78c2.47,0.07,4.94,0,7.41,0.06c2.95,0.08,3.31,0.43,3.38,3.26
	c0.03,1.14,0.03,2.28-0.08,3.41c-0.12,1.32-0.95,2.04-2.26,2.07c-2.85,0.07-5.7,0.04-8.54,0.13c-1.93,0.06-2.49,0.53-2.5,2.29
	c-0.04,7.79-0.02,15.57,0,23.36c0,1.39,0.77,2.05,2.12,2.07c3.04,0.04,6.08,0.06,9.12,0.11c0.81,0.01,1.57,0.35,1.8,1.13
	c0.59,2.04,0.57,4.13,0.03,6.17c-0.12,0.46-0.66,0.97-1.12,1.13c-0.7,0.24-1.49,0.21-2.24,0.27c-3,0.24-6.05-0.47-9.01,0.49
	c-1.47,3.06-0.6,6.32-0.7,9.48c-0.15,5.12-0.07,10.26,0,15.38c0.03,2.18,0.49,2.6,2.72,2.68c2.85,0.11,5.7,0.08,8.54,0.17
	c0.77,0.02,1.54,0.36,1.78,1.16c0.62,2.04,0.52,4.13,0,6.17c-0.2,0.79-1.02,1.08-1.81,1.1c-3.04,0.05-6.08,0.06-9.12,0.1
	c-1.37,0.02-2.11,0.71-2.12,2.09c-0.03,4.94-0.04,9.88-0.05,14.82c0,2.85-0.03,5.7,0.04,8.55c0.04,1.74,0.61,2.26,2.49,2.32
	c2.66,0.09,5.32,0.02,7.97,0.12c2.2,0.08,2.79,0.64,2.89,2.65c0.07,1.32,0.04,2.66-0.02,3.99c-0.07,1.38-0.94,2.01-2.23,2.04
	c-2.85,0.06-5.7,0.02-8.55,0.11c-1.94,0.06-2.52,0.53-2.53,2.28c-0.05,7.79-0.05,15.57,0,23.36c0.01,1.79,0.6,2.33,2.43,2.39
	c2.85,0.09,5.7,0.03,8.54,0.13c1.72,0.06,2.27,0.7,2.36,2.51c0.06,1.14,0.06,2.28,0,3.42c-0.1,1.74-0.72,2.44-2.41,2.51
	c-3.03,0.13-6.07,0.12-9.11,0.22c-1.1,0.04-1.79,0.74-1.79,1.81c-0.04,5.51-0.02,11.01,0.01,16.52c0.01,1.11,0.71,1.71,1.79,1.75
	c1.52,0.07,3.04,0.09,4.55,0.09C967.77,772.12,982.77,772.12,997.78,772.12z M640.86,1256.45c0,22.78-0.01,45.57,0,68.35
	c0,6.28-0.51,6.01,5.71,6.01c23.16,0,46.33-0.02,69.49,0.02c5.14,0.01,10.24-0.34,15.3-1.23c25.44-4.47,42.6-18.74,50.95-43.29
	c4.15-12.22,5.06-24.88,4.22-37.67c-0.59-9.11-2.11-18.09-5.47-26.66c-6.42-16.38-17.5-28.28-33.99-34.74
	c-8.75-3.43-17.94-4.82-27.32-4.84c-24.49-0.05-48.99-0.03-73.48-0.04c-5.74,0-5.42-0.24-5.42,5.74
	C640.86,1210.88,640.86,1233.66,640.86,1256.45z M1332.22,729.77c-0.01,0-0.01,0-0.02,0c0-110.98,0-221.95,0-332.93
	c0-1.9,0-3.8-0.1-5.7c-0.07-1.3-0.82-2.08-2.17-2.1c-3.04-0.04-6.08-0.09-9.12-0.06c-8.34,0.08-7.55-1.04-7.55,7.68
	c-0.01,221.76-0.02,443.52,0,665.28c0,9.22-1.17,8.04,8.23,8.14c2.85,0.03,5.7-0.02,8.55-0.09c1.35-0.03,2.07-0.84,2.1-2.18
	c0.05-2.09,0.07-4.18,0.07-6.27C1332.22,950.96,1332.22,840.37,1332.22,729.77z M1209.89,729.18c0-67.83,0-135.66,0-203.49
	c0-43.13,0-86.26-0.01-129.39c0-1.9-0.05-3.79-0.17-5.69c-0.05-0.82-0.61-1.42-1.45-1.46c-2.28-0.1-4.56-0.26-6.83-0.12
	c-2.78,0.17-6.19-1.28-8.19,0.84c-1.77,1.87-0.66,5.1-0.66,7.71c-0.03,221.74-0.03,443.47-0.03,665.21c0,1.33,0,2.66,0.02,3.99
	c0.01,0.57,0.03,1.14,0.13,1.7c0.15,0.8,0.63,1.4,1.47,1.44c2.27,0.1,4.55,0.21,6.83,0.18c10.39-0.13,8.87,1.27,8.87-8.6
	C1209.91,950.72,1209.89,839.95,1209.89,729.18z M693.4,907.44c1.8,0.32,3.83,0.76,5.88,1.02c8.68,1.12,17.14,3.21,25.48,5.85
	c20.58,6.51,39,16.77,54.87,31.48c0.63,0.59,1.24,1.52,2.54,0.78c0.05-1.02,0.16-2.14,0.16-3.26c0.01-46.74,0.01-93.48,0-140.22
	c0-1.14-0.03-2.28-0.1-3.41c-0.06-1.13-0.77-1.69-1.83-1.73c-1.71-0.07-3.42-0.09-5.13-0.09c-18.81,0.03-37.62,0.07-56.43,0.09
	c-7.22,0.01-14.44-0.09-21.66-0.07c-4.44,0.01-4.44,0.08-4.55,4.43c-0.01,0.38,0,0.76,0,1.14c0,32.87-0.01,65.74,0.01,98.61
	C692.65,903.73,692.37,905.47,693.4,907.44z M284.7,970.41c0-30.96,0-61.91,0-92.87c0-1.52,0.04-3.04-0.02-4.56
	c-0.11-2.88-0.55-3.34-3.25-3.49c-1.14-0.06-2.28-0.04-3.42-0.04c-16.9,0-33.8-0.01-50.71,0c-6.91,0.01-6.4-0.36-6.4,6.56
	c-0.01,29.44,0,58.87,0,88.31c0,1.33,0.02,2.66,0.05,3.99c0.03,1.34,0.68,2.13,2.07,2.14c4.18,0.03,8.36,0.01,12.53,0.06
	c8.1,0.1,7.57-1.07,7.57,7.08c0,0.38,0,0.76,0.03,1.14c0.14,1.93,0.52,2.32,2.3,2.62c1.62,0.27,3.63-0.61,4.77,1.01
	c1.02,1.45,0.38,3.32,0.48,5.01c0.06,0.95,0.01,1.9,0.01,2.85c0,24.31,0,48.62,0,72.93c0,1.52-0.03,3.04,0.04,4.56
	c0.09,1.92,0.56,2.43,2.3,2.55c1.13,0.08,2.28,0.06,3.42,0.06c7.03,0,14.05,0.01,21.08,0c7.65,0,7.14,0.48,7.14-7.04
	C284.7,1032.32,284.7,1001.36,284.7,970.41z M1034.53,995.98c0-22.21,0-44.43,0-66.64c0-1.71-0.02-3.42-0.09-5.12
	c-0.04-1.07-0.64-1.74-1.75-1.81c-1.14-0.06-2.28-0.1-3.41-0.1c-18.04-0.01-36.07,0-54.11,0c-5.07,0-4.93-0.17-4.93,5.05
	c0,45.76,0,91.51,0,137.27c0,5.44-0.2,5.4,5.22,5.41c17.66,0.01,35.31,0.01,52.97,0c6.54-0.01,6.1,0.36,6.1-6.27
	C1034.54,1041.17,1034.53,1018.58,1034.53,995.98z M1229.32,729.76C1229.32,729.76,1229.31,729.76,1229.32,729.76
	c-0.01-110.95-0.01-221.91-0.01-332.86c0-1.33,0.03-2.66-0.01-3.99c-0.09-3.78-0.13-3.82-3.83-3.92c-0.57-0.02-1.14-0.01-1.71-0.01
	c-8.02,0.1-7.49-0.99-7.51,7.18c0,1.33,0,2.66,0,3.99c0,220.58,0,441.16,0,661.74c0,1.52,0,3.04,0.02,4.56
	c0.01,0.57,0.05,1.14,0.11,1.7c0.12,1.08,0.74,1.7,1.81,1.8c0.94,0.09,1.89,0.15,2.84,0.13c9.57-0.13,8.27,1.17,8.27-8.04
	C1229.33,951.29,1229.32,840.52,1229.32,729.76z M1235.72,729.8C1235.72,729.8,1235.72,729.8,1235.72,729.8
	c-0.01,110.37-0.01,220.75,0,331.12c0,2.09-0.03,4.18,0.04,6.27c0.08,2.31,0.48,2.72,2.6,2.85c1.14,0.07,2.28,0.07,3.42,0.06
	c7.77-0.08,6.84,0.66,6.92-7.14c0-0.38,0-0.76,0-1.14c0-185.79,0-371.59,0-557.38c0-35.9,0-71.81,0-107.71
	c0-1.71,0.03-3.42-0.04-5.13c-0.09-2.09-0.55-2.47-2.84-2.59c-0.57-0.03-1.14-0.03-1.71-0.02c-9.33,0.14-8.38-1.27-8.38,7.98
	C1235.71,507.91,1235.72,618.85,1235.72,729.8z M1255.1,729.09c0,94.99,0,189.98,0,284.97c0,16.72,0,33.44,0,50.15
	c0,6.13-0.26,5.91,5.94,5.88c7.9-0.04,7.04,0.76,7.04-6.99c0.01-222.46,0.01-444.93,0-667.39c0-1.52,0-3.04-0.05-4.56
	c-0.05-1.33-0.74-2.11-2.12-2.12c-2.85-0.02-5.7-0.02-8.55,0c-1.36,0.01-2.12,0.77-2.17,2.09c-0.09,2.09-0.09,4.18-0.09,6.27
	C1255.1,507.96,1255.1,618.52,1255.1,729.09z M1287.47,729.83C1287.47,729.83,1287.46,729.83,1287.47,729.83
	c0-110.95,0-221.89,0-332.84c0-1.33,0.02-2.66-0.01-3.99c-0.08-3.82-0.18-3.91-3.74-4.01c-0.76-0.02-1.52-0.02-2.28-0.01
	c-7.51,0.08-6.95-0.85-6.95,7.14c-0.01,35.72-0.01,71.43-0.01,107.15c0,186.18,0,372.35,0,558.53c0,2.09,0.03,4.18,0.11,6.26
	c0.04,1.05,0.6,1.77,1.7,1.89c0.94,0.1,1.89,0.16,2.84,0.15c9.6-0.12,8.31,1.15,8.31-8
	C1287.48,951.34,1287.47,840.58,1287.47,729.83z M1293.87,729.85C1293.87,729.85,1293.87,729.85,1293.87,729.85
	c-0.01,110.57-0.01,221.13,0,331.7c0,2.09,0.02,4.18,0.06,6.27c0.03,1.33,0.7,2.14,2.07,2.19c1.9,0.07,3.8,0.11,5.7,0.09
	c5.09-0.05,5.1-0.06,5.16-4.9c0.01-0.76,0-1.52,0-2.28c0-222.46,0-444.92-0.01-667.38c0-1.52,0.01-3.04-0.07-4.56
	c-0.05-1.03-0.57-1.8-1.72-1.88c-0.95-0.07-1.9-0.12-2.84-0.11c-9.3,0.13-8.34-1.27-8.34,8.02
	C1293.87,507.95,1293.87,618.9,1293.87,729.85z M464.68,1024.94c-20.12,0-40.23,0-60.35,0.01c-1.71,0-3.41,0.04-5.12,0.14
	c-0.83,0.04-1.39,0.56-1.48,1.41c-0.1,0.94-0.17,1.89-0.17,2.83c-0.01,12.15-0.03,24.29,0.01,36.44c0.01,4.35,0.18,4.45,4.46,4.55
	c0.38,0.01,0.76,0,1.14,0c40.8,0,81.6,0,122.4-0.01c1.32,0,2.65-0.07,3.97-0.22c0.8-0.09,1.42-0.61,1.49-1.45
	c0.12-1.32,0.17-2.65,0.17-3.97c0.01-11.2,0.02-22.39,0-33.59c-0.01-6.47,0.52-6.14-6.18-6.14
	C504.91,1024.93,484.79,1024.93,464.68,1024.94z M995.07,830.58c0-14.82,0.02-29.63-0.01-44.45c-0.01-4.99-0.06-5.04-5.03-5.04
	c-22.98-0.02-45.97-0.01-68.95,0c-1.14,0-2.28,0.03-3.41,0.14c-0.83,0.08-1.47,0.63-1.48,1.44c-0.07,3.79-0.08,7.58-0.04,11.37
	c0.01,1.1,0.8,1.7,1.86,1.74c1.71,0.07,3.42,0.07,5.13,0.07c15.39,0.01,30.77-0.02,46.16,0.02c4.27,0.01,4.35,0.17,4.32,4.58
	c-0.03,3.99-0.15,4.12-4.19,4.23c-1.33,0.04-2.66,0.01-3.99,0.01c-14.44,0-28.87-0.01-43.31,0.01c-1.51,0-3.03,0.05-4.54,0.2
	c-0.8,0.08-1.41,0.68-1.44,1.5c-0.08,2.46-0.15,4.93-0.07,7.4c0.05,1.64,0.77,2.2,2.61,2.29c1.52,0.08,3.04,0.05,4.56,0.05
	c14.63,0,29.25,0,43.88,0.01c1.52,0,3.04,0.02,4.55,0.11c0.78,0.05,1.6,0.43,1.72,1.22c0.31,2.05,0.81,4.31-0.26,6.11
	c-0.99,1.67-3.12,0.85-4.76,0.97c-1.13,0.09-2.28,0.02-3.42,0.02c-14.63,0-29.25-0.02-43.88,0.01c-5.03,0.01-5.08,0.06-5.08,5.05
	c-0.01,6.8-0.55,6.51,6.47,6.51c15.39,0,30.77-0.02,46.16,0.01c4.99,0.01,5.11,0.2,5,5.12c-0.01,0.57-0.01,1.14-0.08,1.71
	c-0.13,1.07-0.78,1.72-1.84,1.79c-1.51,0.09-3.03,0.11-4.55,0.11c-15.01,0.01-30.01,0-45.02,0.01c-6.46,0-6.14-0.39-6.14,6.24
	c0,1.14,0.04,2.28,0.12,3.41c0.08,1.1,0.76,1.72,1.83,1.78c1.52,0.08,3.04,0.08,4.56,0.08c15.2,0.01,30.39-0.01,45.59,0.01
	c5.67,0.01,5.78,0.16,5.52,5.69c-0.01,0.19-0.01,0.38-0.03,0.57c-0.14,1.7-0.68,2.26-2.53,2.37c-1.51,0.09-3.04,0.06-4.56,0.06
	c-14.06,0-28.11,0-42.17,0c-1.33,0-2.66-0.02-3.99,0.01c-4.12,0.09-4.26,0.2-4.34,4.07c-0.05,2.28-0.05,4.56,0,6.84
	c0.09,3.72,0.28,3.96,3.85,3.98c6.84,0.05,13.68,0.02,20.51,0.02c16.9,0,33.81,0.02,50.71-0.02c3.64-0.01,3.86-0.31,3.98-3.86
	c0.04-1.14,0.01-2.28,0.01-3.42C995.07,858.69,995.07,844.64,995.07,830.58z M1001.18,830.61c0,14.44,0,28.87,0,43.31
	c0,6.53-0.39,6.12,6.24,6.13c22.22,0.01,44.45,0,66.67,0c1.14,0,2.28,0.02,3.42-0.04c1.83-0.11,2.5-0.64,2.54-2.33
	c0.08-3.42,0.05-6.84,0.03-10.25c-0.01-1.31-0.62-2.16-2.01-2.21c-1.52-0.05-3.04-0.08-4.56-0.08c-14.44-0.01-28.87,0-43.31,0
	c-1.52,0-3.04,0.03-4.56-0.04c-2.23-0.11-2.72-0.57-2.82-2.65c-0.06-1.14-0.05-2.28,0.01-3.42c0.09-1.89,0.58-2.44,2.3-2.53
	c1.52-0.08,3.04-0.05,4.56-0.05c14.25,0,28.49,0.04,42.74-0.02c8.84-0.04,7.59,1.17,7.68-8.01c0.01-0.75-0.04-1.55-0.29-2.24
	c-0.16-0.45-0.71-1-1.14-1.05c-1.5-0.18-3.03-0.2-4.54-0.2c-11.78-0.01-23.55-0.01-35.33-0.01c-4.37,0-8.74,0.04-13.11-0.04
	c-2.56-0.04-2.81-0.4-2.91-3.11c-0.2-5.49-0.15-5.58,5.64-5.59c15.01-0.02,30.01,0.01,45.02-0.01c7.39-0.01,6.61,0.61,6.68-6.8
	c0.01-0.95,0.01-1.91-0.11-2.84c-0.13-1.03-0.71-1.76-1.83-1.81c-1.52-0.07-3.04-0.11-4.55-0.11c-15.01-0.01-30.01-0.01-45.02,0
	c-6.37,0-5.95,0.25-5.75-6.5c0.03-1.1,0.71-1.75,1.77-1.81c1.7-0.11,3.41-0.13,5.12-0.13c14.63-0.01,29.25,0,43.88-0.01
	c6.85,0,6.5,0.5,6.49-6.48c0-4.93,0.15-4.97-5.09-4.97c-15.01,0.01-30.01,0-45.02,0c-1.71,0-3.42-0.01-5.12-0.1
	c-1.34-0.07-2.02-0.86-2.07-2.19c-0.01-0.38-0.03-0.76-0.04-1.14c-0.17-5.34-0.17-5.38,5.18-5.39c15.01-0.02,30.01-0.01,45.02-0.01
	c1.52,0,3.04,0.03,4.56-0.04c1.87-0.09,2.43-0.57,2.5-2.32c0.1-2.47,0.09-4.94,0.07-7.41c-0.05-4.95-0.06-4.99-5.04-5
	c-22.98-0.02-45.97-0.01-68.95,0c-1.14,0-2.27,0.06-3.41,0.16c-0.87,0.08-1.35,0.68-1.41,1.5c-0.1,1.51-0.14,3.03-0.14,4.55
	C1001.18,801.74,1001.18,816.17,1001.18,830.61z M290.81,1001.54c0,20.52,0,41.04,0,61.56c0,1.71,0,3.42,0.07,5.13
	c0.04,1.05,0.59,1.78,1.7,1.91c0.75,0.09,1.51,0.16,2.27,0.16c6.84,0.01,13.68,0.01,20.52,0c0.76,0,1.52-0.05,2.27-0.13
	c1.11-0.11,1.71-0.84,1.74-1.88c0.09-2.66,0.09-5.32,0.1-7.98c0.01-7.41-0.04-14.82,0.01-22.23c0.01-1.78-0.61-2.77-2.35-3.31
	c-3.47-1.08-6.64-2.77-9.38-5.22c-3.89-3.48-6.83-7.64-8.94-12.38c-4.95-11.16-5.84-22.74-3.06-34.55
	c1.9-8.09,5.43-15.39,11.75-21.07c9.19-8.27,21.2-8.26,30.39,0.03c3.87,3.49,6.71,7.71,8.79,12.48c4.8,11.01,5.78,22.43,2.93,34
	c-3.04,12.32-8.94,22.63-21.97,26.95c-1.32,0.44-1.68,1.34-1.68,2.58c0,9.88-0.03,19.76,0.02,29.64c0.01,2.56,0.44,3,3,3.02
	c6.65,0.07,13.3,0.02,19.95,0.05c5.97,0.02,5.63-0.11,5.63-5.63c0-0.38,0-0.76,0-1.14c0-41.04,0-82.07,0-123.11
	c0-1.14,0.02-2.28-0.01-3.42c-0.1-3.2-0.29-3.38-3.72-3.5c-0.76-0.03-1.52-0.01-2.28-0.01c-17.29,0-34.58,0-51.87,0.01
	c-1.33,0-2.66,0-3.98,0.11c-1.05,0.09-1.76,0.69-1.8,1.81c-0.06,1.71-0.1,3.42-0.1,5.12C290.81,960.89,290.81,981.22,290.81,1001.54
	z M1141.05,996.08c0-22.02,0-44.05,0-66.07c0-1.33,0.03-2.66-0.01-3.99c-0.1-3.37-0.31-3.65-3.51-3.68
	c-5.7-0.06-11.39-0.05-17.09-0.01c-4.37,0.03-4.38,0.06-4.46,4.4c-0.01,0.76,0,1.52,0,2.28c0,44.81,0,89.61,0,134.42
	c0,1.33-0.03,2.66,0.05,3.99c0.12,2.11,0.56,2.59,2.82,2.63c5.31,0.08,10.63,0.05,15.95,0.07c6.51,0.03,6.25,0.03,6.25-6.25
	C1141.05,1041.26,1141.05,1018.67,1141.05,996.08z M939.41,996.13c0-20.51,0-41.01,0-61.52c0-3.04,0.04-6.08-0.02-9.11
	c-0.06-2.68-0.42-3.12-2.85-3.14c-5.89-0.06-11.77-0.06-17.66,0c-2.26,0.02-2.74,0.51-2.84,2.59c-0.08,1.52-0.05,3.04-0.05,4.56
	c0,44.43,0,88.86,0,133.3c0,1.52-0.03,3.04,0.05,4.56c0.12,2.07,0.66,2.67,2.85,2.69c5.89,0.07,11.77,0.07,17.66-0.01
	c2.14-0.03,2.72-0.67,2.82-2.7c0.08-1.52,0.04-3.04,0.04-4.56C939.41,1040.56,939.41,1018.34,939.41,996.13z M857.47,978.9
	c0.01,0,0.03,0,0.04,0c0-27.74,0-55.49,0-83.23c0-1.71,0-3.42-0.06-5.13c-0.05-1.35-0.8-2.08-2.16-2.09
	c-4.18-0.03-8.36-0.08-12.54-0.04c-4.42,0.04-4.42,0.08-4.5,4.45c-0.01,0.57,0,1.14,0,1.71c0,56.44,0,112.87,0,169.31
	c0,1.33,0.02,2.66,0.08,3.99c0.06,1.36,0.9,2.08,2.18,2.11c3.61,0.09,7.22,0.11,10.83,0.12c6.69,0.02,6.13,0.12,6.14-6.26
	C857.47,1035.53,857.47,1007.22,857.47,978.9z M1166.46,978.91c0-27.74,0-55.49,0-83.23c0-1.71-0.01-3.42-0.06-5.13
	c-0.04-1.36-0.82-2.08-2.16-2.09c-4.37-0.03-8.74-0.08-13.11-0.04c-3.75,0.04-3.84,0.17-3.94,3.85c-0.03,1.33-0.01,2.66-0.01,3.99
	c0.02,11.4,0.06,22.8,0.06,34.2c0.01,43.89,0,87.79,0.01,131.68c0,1.9,0.02,3.8,0.08,5.7c0.04,1.35,0.87,2.1,2.15,2.13
	c3.61,0.09,7.22,0.11,10.83,0.12c6.7,0.02,6.14,0.08,6.15-6.25C1166.46,1035.53,1166.46,1007.22,1166.46,978.91z M575.49,670.79
	c15.57,0,31.15,0,46.72,0c1.71,0,3.42-0.03,5.12-0.1c0.86-0.04,1.32-0.95,0.84-1.59c-0.8-1.06-1.63-2.09-2.49-3.1
	c-14.52-17.07-29.04-34.14-43.56-51.21c-1.6-1.88-3.2-3.76-4.85-5.6c-1.13-1.25-1.73-1.28-2.77-0.1c-2.75,3.15-5.45,6.34-8.16,9.52
	c-13.55,15.9-27.09,31.8-40.63,47.71c-0.74,0.87-1.46,1.75-2.15,2.65c-0.52,0.69-0.16,1.64,0.64,1.68c1.7,0.08,3.41,0.13,5.12,0.13
	C544.72,670.8,560.11,670.79,575.49,670.79z M1056.98,995.42c0,22.2,0,44.4,0,66.6c0,1.52-0.03,3.04,0.01,4.55
	c0.09,3.17,0.31,3.43,3.72,3.49c4.17,0.07,8.35,0.05,12.52,0.03c7.63-0.04,6.89,0.58,6.9-7.19c0.02-44.59,0.01-89.18,0.01-133.78
	c0-1.14,0.02-2.28-0.02-3.42c-0.1-3.1-0.28-3.32-3.17-3.39c-2.66-0.06-5.31-0.03-7.97-0.02c-3.23,0.01-6.45-0.02-9.68,0.06
	c-1.8,0.04-2.21,0.53-2.3,2.47c-0.07,1.52-0.04,3.04-0.04,4.55C1056.98,951.4,1056.98,973.41,1056.98,995.42z M1086.54,995.44
	c0,22.42,0,44.85,0,67.27c0,1.52-0.03,3.04,0.03,4.56c0.1,2.24,0.48,2.72,2.66,2.77c4.56,0.09,9.12,0.09,13.68,0.07
	c7.44-0.03,6.67,0.52,6.67-6.81c0.02-44.85,0.01-89.69,0.01-134.54c0-1.52-0.02-3.04-0.08-4.56c-0.04-1.09-0.65-1.78-1.75-1.79
	c-6.46-0.03-12.92-0.03-19.37,0c-1.09,0-1.73,0.68-1.76,1.77c-0.06,1.71-0.08,3.42-0.08,5.13
	C1086.54,951.35,1086.54,973.39,1086.54,995.44z M909.87,996.31c0-22.01,0-44.02,0-66.04c0-1.52,0.03-3.04-0.01-4.55
	c-0.08-3.1-0.26-3.34-3.17-3.38c-4.36-0.06-8.73-0.05-13.09-0.02c-7.72,0.06-6.94-0.84-6.94,7.07c-0.02,44.4-0.01,88.81-0.01,133.21
	c0,1.14-0.02,2.28,0.01,3.42c0.12,3.88,0.21,4.01,4.34,4.07c4.17,0.06,8.35,0.03,12.52,0.02c1.33,0,2.66,0,3.98-0.1
	c1.7-0.13,2.25-0.73,2.33-2.54c0.07-1.52,0.04-3.04,0.04-4.55C909.87,1040.71,909.87,1018.51,909.87,996.31z M832.15,967.32
	c0-14.43,0.01-28.86,0-43.3c-0.01-6.75,0.57-6.35-6.59-6.35c-6.46,0-12.91,0-19.37,0c-4.75,0-9.5-0.03-14.24,0.03
	c-2.79,0.04-3.15,0.33-3.16,2.81c-0.05,10.82-0.03,21.65-0.05,32.47c0,1.59,0.41,2.98,1.48,4.17c0.63,0.7,1.23,1.45,1.8,2.2
	c6.97,9.12,12.69,18.8,15.34,30.19c1.89,8.12,4.51,16.06,6.84,24.07c0.63,2.16,1.01,2.47,3.17,2.52c3.61,0.08,7.22,0.08,10.82,0.02
	c3.67-0.05,3.84-0.26,3.94-3.84c0.03-1.33,0.01-2.66,0.01-3.99C832.15,994.67,832.15,980.99,832.15,967.32z M963.83,996.58
	c0-22.23,0-44.46,0-66.69c0-1.71,0.03-3.42-0.05-5.13c-0.09-1.91-0.5-2.37-2.38-2.41c-3.99-0.07-7.98-0.08-11.97-0.04
	c-3.71,0.05-3.82,0.2-3.92,3.84c-0.03,0.95-0.01,1.9-0.01,2.85c0,44.65,0,89.3,0,133.94c0,1.52-0.03,3.04,0.05,4.56
	c0.09,1.72,0.72,2.42,2.45,2.48c3.23,0.11,6.46,0.1,9.69,0.1c6.56-0.01,6.13,0.3,6.14-6.26
	C963.84,1041.42,963.83,1019,963.83,996.58z M486.39,909.76c0-11.39,0-22.78,0-34.17c0-4.18,0.04-8.35-0.03-12.53
	c-0.06-3.28-0.41-3.66-3.56-3.7c-5.69-0.07-11.39-0.04-17.08-0.03c-1.52,0-3.03,0.04-4.55,0.13c-1.1,0.07-1.67,0.77-1.71,1.85
	c-0.06,1.33-0.09,2.65-0.09,3.98c0,28.28,0,56.56,0,84.84c0,1.33,0.01,2.66,0.07,3.98c0.05,1.05,0.58,1.79,1.68,1.91
	c1.13,0.12,2.27,0.22,3.4,0.24c5.53,0.08,11.02,0.71,16.35,2.03c5.9,1.47,5.5,0.55,5.5-4.7
	C486.39,938.99,486.39,924.38,486.39,909.76z M880.31,996.62c0-22.41,0-44.81,0-67.22c0-1.52,0.03-3.04-0.04-4.56
	c-0.08-1.97-0.47-2.43-2.29-2.48c-2.85-0.08-5.7-0.06-8.54-0.06c-5.76,0-5.6-0.31-5.61,5.58c0,0.19,0,0.38,0,0.57
	c0,45,0,90,0,135.01c0,0.95-0.02,1.9,0.02,2.85c0.13,3.37,0.36,3.65,3.51,3.75c2.28,0.08,4.56,0.03,6.84,0.03
	c6.67-0.01,6.11,0.16,6.11-6.26C880.32,1041.44,880.31,1019.03,880.31,996.62z M344.74,994.25c-0.07-0.92-0.06-3.22-0.43-5.46
	c-1.26-7.67-4.04-14.64-9.96-19.99c-6.86-6.2-16.38-6.18-23.28-0.04c-2.73,2.44-4.93,5.3-6.44,8.61
	c-5.53,12.11-5.51,24.27,0.11,36.33c1.95,4.18,4.82,7.75,8.82,10.23c6.05,3.75,12.18,3.76,18.23,0.02c4.17-2.57,6.98-6.37,9.1-10.71
	C343.62,1007.7,344.78,1001.79,344.74,994.25z M913.89,913.38c14.44,0,28.89,0,43.33,0c1.52,0,3.04-0.02,4.56-0.07
	c1.41-0.04,1.96-0.9,2-2.2c0.02-0.76,0.05-1.52,0.04-2.28c-0.05-3.13-0.32-3.39-3.7-3.48c-1.33-0.03-2.66-0.01-3.99-0.01
	c-24.51,0-49.03,0-73.54-0.01c-1.71,0-3.42-0.04-5.12-0.13c-0.81-0.04-1.41-0.46-1.59-1.33c-1.22-5.87-0.22-7.18,5.55-7.22
	c1.33-0.01,2.66,0,3.99,0c23.94,0,47.89,0,71.83-0.01c1.71,0,3.42-0.05,5.11-0.22c0.44-0.05,1.12-0.58,1.2-0.98
	c0.38-2.06,0.83-4.31-0.29-6.12c-0.85-1.38-2.79-0.75-4.27-0.84c-0.57-0.03-1.14-0.01-1.71-0.01c-28.7-0.02-57.39-0.04-86.09-0.06
	c-1.52,0-3.04-0.03-4.56,0.04c-2.09,0.1-2.71,0.63-2.73,2.76c-0.08,6.08-0.09,12.16-0.04,18.24c0.03,3.7,0.23,3.83,3.85,3.92
	c1.14,0.03,2.28,0.01,3.42,0.01C885.38,913.38,899.64,913.38,913.89,913.38z M1091.27,888.4c0,0.02,0,0.04,0,0.06
	c-14.62,0-29.24,0-43.86,0c-1.52,0-3.04,0.03-4.55,0.1c-1.1,0.05-1.73,0.7-1.84,1.76c-0.09,0.94-0.09,1.9-0.08,2.84
	c0.04,3.08,0.26,3.35,3.11,3.45c1.9,0.07,3.8,0.03,5.7,0.03c26.96,0,53.92-0.01,80.88,0.02c3.94,0,4.24,0.4,4.27,4.18
	c0.03,4.2-0.18,4.42-4.45,4.49c-1.33,0.02-2.66,0.01-3.99,0.01c-26.2,0-52.4,0-78.6,0c-1.71,0-3.42,0.03-5.12,0.1
	c-1.13,0.04-1.72,0.75-1.74,1.82c-0.15,6.55-0.57,6.1,5.49,6.12c0.38,0,0.76,0,1.14,0c28.86,0,57.72,0,86.58,0
	c1.14,0,2.28,0.02,3.42-0.01c3.15-0.11,3.43-0.35,3.46-3.73c0.06-5.13,0.03-10.25,0.01-15.38c0-1.33-0.03-2.66-0.14-3.98
	c-0.09-1.08-0.79-1.72-1.85-1.79c-1.51-0.1-3.04-0.09-4.55-0.09C1120.13,888.4,1105.7,888.4,1091.27,888.4z M1011.49,501.37
	c-0.01,0-0.01,0-0.02,0c0-8.14,0.03-16.29-0.02-24.43c-0.01-2.31-0.37-2.68-2.64-2.7c-7.01-0.05-14.02-0.06-21.02-0.01
	c-2.57,0.02-2.89,0.35-2.9,3.04c-0.05,8.71-0.03,17.43-0.03,26.14c0,7.2-0.02,14.4,0.04,21.59c0.02,2.64,0.37,2.98,2.95,3
	c6.82,0.05,13.64,0.03,20.46,0.02c0.57,0,1.13-0.06,1.69-0.14c0.86-0.12,1.32-0.69,1.37-1.52c0.08-1.32,0.12-2.65,0.12-3.97
	C1011.5,515.39,1011.49,508.38,1011.49,501.37z M1050.64,996.58c0-22.23,0-44.46,0-66.69c0-1.71,0.02-3.42-0.06-5.13
	c-0.09-1.88-0.55-2.39-2.4-2.4c-8.21-0.03-7.23-1-7.24,6.66c-0.02,44.65-0.01,89.3-0.01,133.95c0,1.33-0.03,2.66,0.02,3.99
	c0.1,2.6,0.46,3.05,2.94,3.08c7.11,0.1,6.75,0.5,6.75-6.21C1050.65,1041.43,1050.64,1019,1050.64,996.58z M676.66,936.98
	c-0.05,0.84-0.12,1.4-0.12,1.97c-0.01,23.89-0.01,47.77,0,71.66c0,0.95-0.02,1.9,0.04,2.84c0.13,2.12,0.6,2.68,2.76,2.7
	c6.25,0.06,12.51,0.02,18.77,0c0.37,0,0.76-0.06,1.11-0.17c0.57-0.17,1-0.57,0.94-1.19c-0.1-0.93-0.23-1.88-0.49-2.77
	c-7.08-24.36-14.18-48.71-21.28-73.06C678.17,938.23,678,937.49,676.66,936.98z M668,916.09c-0.97-0.78-2.13-0.57-3.23-0.58
	c-4.94-0.04-9.83,0.5-14.72,1.21c-5.4,0.78-5.51,0.8-5.52,6.35c-0.01,23.15-0.01,46.3,0.02,69.45c0,0.61-0.46,1.47,0.51,1.84
	c0.77-0.39,1.06-1.06,1.29-1.78C653.39,970.64,667.54,920.64,668,916.09z M638.06,919.15c-7.85,1.17-14.94,3.78-22.05,6.34
	c-0.18,0.06-0.34,0.16-0.51,0.25c-0.8,0.41-0.94,1.13-0.81,1.91c0.09,0.56,0.3,1.09,0.48,1.63c7.04,21.61,14.09,43.23,21.13,64.84
	c0.34,1.04,0.57,2.16,1.67,2.76C638.57,992.42,638.68,926.07,638.06,919.15z M646.88,1015.56c0.16,0.09,0.31,0.25,0.48,0.27
	c6.99,0.76,14.01,0.22,21.01,0.28c0.18,0,0.37-0.07,0.56-0.11c0.84-0.18,1.32-0.69,1.38-1.54c0.07-0.95,0.11-1.89,0.11-2.84
	c0.01-24.11,0.01-48.21-0.03-72.32c0-0.74,0.51-1.82-0.7-2.31C667.51,942.18,647.47,1011.24,646.88,1015.56z M737.19,788.98
	C737.19,788.98,737.19,788.98,737.19,788.98c7,0,14.01,0.04,21.01-0.01c2.68-0.02,3.11-0.41,3.15-2.88c0.07-4.92,0.07-9.84,0-14.76
	c-0.03-2.22-0.49-2.59-2.71-2.73c-0.57-0.04-1.14-0.03-1.7-0.03c-13.44,0-26.88-0.01-40.32,0.04c-2.36,0.01-2.77,0.4-2.8,2.57
	c-0.07,4.92-0.07,9.84-0.02,14.77c0.03,2.6,0.4,3,2.95,3.02C723.56,789.01,730.37,788.98,737.19,788.98z M702.03,994.52
	c0.73-1.37,0.38-2.88,0.39-4.32c0.03-22.36,0.02-44.72,0.02-67.08c0-0.95,0.02-1.9-0.02-2.84c-0.1-2.12-0.41-2.66-2.57-3.03
	c-6.71-1.14-13.45-2.21-20.3-1.51c-0.27,0.03-0.5,0.42-0.99,0.86c7.49,25.51,14.99,51.1,22.51,76.68
	C701.21,993.78,701.19,994.47,702.03,994.52z M709.86,996.73c0.79-2.31,1.34-3.89,1.87-5.49c4.52-13.66,9.04-27.33,13.54-41
	c2.37-7.2,4.74-14.39,7.05-21.61c0.73-2.27,0.62-2.47-1.67-3.32c-6.21-2.32-12.52-4.35-19-5.8c-2.18-0.49-2.7-0.07-2.84,2.16
	c-0.05,0.76-0.04,1.52-0.04,2.27c0,22.76-0.01,45.51,0.01,68.27C708.78,993.51,708.47,994.88,709.86,996.73z M612.68,946.01
	c-0.06,0.95-0.12,1.51-0.12,2.08c-0.01,20.88-0.01,41.75-0.01,62.63c0,0.38-0.01,0.76,0,1.14c0.09,4.22,0.12,4.29,4.6,4.32
	c5.12,0.04,10.25,0.02,15.37,0c1.12,0,2.28,0.13,3.31-0.52c-0.57-4.37-10.75-36.5-21.24-67.09
	C614.3,947.69,614.08,946.78,612.68,946.01z M582.86,1016.08c6.8,0.2,13.24,0.12,19.67,0.09c3.69-0.02,3.82-0.22,3.93-3.84
	c0.01-0.38,0.01-0.76,0.01-1.14c0-21.07,0-42.14-0.03-63.2c0-0.57,0.52-1.53-0.65-1.75C603.83,950,584.8,1007.83,582.86,1016.08z
	 M734.41,947.19c-0.34-0.05-0.69-0.11-1.03-0.16c-0.45,1.2-0.93,2.38-1.34,3.59c-1.45,4.31-2.87,8.63-4.29,12.94
	c-5.21,15.84-10.43,31.67-15.62,47.51c-0.5,1.53-1.38,3.05-0.65,5.12c3.47,0,6.87,0.01,10.27,0c3.6-0.02,7.21-0.04,10.81-0.1
	c1.09-0.02,1.71-0.68,1.76-1.78c0.06-1.33,0.09-2.65,0.09-3.98c0-19.54,0-39.08,0-58.62C734.41,950.2,734.41,948.69,734.41,947.19z
	 M741.76,947.14c-1.17,1.94-0.98,3.11-0.98,4.23c-0.01,19.95-0.01,39.9-0.01,59.86c0,0.95,0.03,1.9,0.06,2.85
	c0.06,1.39,0.84,2.05,2.18,2.06c5.32,0.03,10.64,0.06,15.96,0.04c5.57-0.02,5.62-0.06,3.94-5.18c-6.4-19.47-12.84-38.92-19.27-58.38
	C743.12,951.05,742.56,949.49,741.76,947.14z M574.45,980.03c0-7.96,0.01-15.92-0.01-23.87c0-1.32-0.02-2.65-0.17-3.96
	c-0.07-0.57-0.62-0.94-1.24-0.67c-0.51,0.22-1,0.53-1.41,0.91c-7.99,7.37-14.75,15.73-20.28,25.11c-1.4,2.37-1.05,4,0.64,6.02
	c6.56,7.85,12.96,15.83,19.43,23.76c0.47,0.58,0.98,1.16,1.57,1.6c0.54,0.4,1.19,0.13,1.29-0.48c0.17-1.11,0.17-2.26,0.17-3.39
	C574.46,996.71,574.45,988.37,574.45,980.03z M773.59,1008.93c1.06-0.04,1.49-0.98,2.05-1.66c6.6-8.06,13.11-16.2,19.81-24.17
	c1.68-2,1.48-3.52,0.28-5.56c-5.41-9.22-12.04-17.44-19.87-24.71c-0.41-0.38-0.87-0.73-1.32-1.07c-0.67-0.5-1.52-0.15-1.62,0.67
	c-0.07,0.56-0.13,1.13-0.13,1.69c-0.01,17.62-0.01,35.24,0.01,52.86C772.8,1007.69,772.65,1008.52,773.59,1008.93z M832.14,1047.65
	C832.14,1047.65,832.14,1047.65,832.14,1047.65c0.01-1.14,0.01-2.28,0.01-3.42c-0.01-5.51,0.02-11.01-0.04-16.52
	c-0.03-2.23-0.49-2.7-2.68-2.73c-3.79-0.06-7.59-0.01-11.39,0.04c-1.06,0.01-1.78,0.56-1.88,1.68c-0.09,0.94-0.12,1.89-0.13,2.84
	c-0.01,11.96,0,23.92,0,35.88c0,0.57-0.01,1.14,0.02,1.71c0.15,2.55,0.56,3.07,2.97,3.13c3.04,0.09,6.08,0.09,9.11,0.03
	c3.72-0.07,3.96-0.29,3.99-3.85C832.18,1060.18,832.14,1053.92,832.14,1047.65z M603.21,931.33c-2.02,0.8-2.92,1.05-3.72,1.49
	c-5.18,2.79-10.13,5.96-15.07,9.15c-2.81,1.82-4,3.98-3.96,7.45c0.18,15.18,0.07,30.37,0.1,45.56c0,0.65-0.33,1.45,0.6,1.99
	c0.34-0.41,0.83-0.77,0.99-1.24C589.05,974.67,595.93,953.61,603.21,931.33z M744.52,932.09c-0.6,0.92-0.07,1.84,0.18,2.69
	c4.89,16.64,18.82,57.67,21.07,62.15c0.62-0.27,0.57-0.86,0.57-1.36c0.02-16.12,0-32.23,0.07-48.35c0.01-1.98-0.87-3.12-2.35-4.17
	c-5.41-3.85-11.04-7.34-16.92-10.43C746.36,932.22,745.56,931.52,744.52,932.09z M978.43,506.33c0.01,0,0.02,0,0.04,0
	c0-4.74,0-9.47,0-14.21c0-1.7,0.01-3.41-0.05-5.11c-0.02-0.51,0.07-1.33-0.73-1.26c-0.42,0.04-0.9,0.56-1.16,0.98
	c-0.78,1.29-1.48,2.64-2.2,3.97c-5.64,10.5-11.28,21.01-16.93,31.51c-0.63,1.17-1.29,2.32-1.86,3.51c-0.71,1.46-0.32,2.25,1.16,2.26
	c6.44,0.04,12.88,0.05,19.32,0.01c1.88-0.01,2.38-0.5,2.4-2.35C978.46,519.21,978.43,512.77,978.43,506.33z M1018.9,485.15
	c-1.2,1.71-1.05,2.84-1.05,3.92c-0.01,11.37-0.01,22.74,0,34.1c0,0.95,0.03,1.89,0.08,2.84c0.07,1.4,0.91,1.99,2.23,1.99
	c6.63,0,13.26-0.01,19.89-0.06c0.3,0,0.6-0.34,1.42-0.85C1034.14,513.32,1026.73,499.54,1018.9,485.15z M1002.86,888.47
	c-8.73,0-17.45,0-26.18,0c-1.52,0-3.03,0.04-4.55,0.1c-1.11,0.05-1.73,0.72-1.81,1.79c-0.09,1.13-0.09,2.28-0.06,3.41
	c0.06,2.36,0.37,2.68,2.57,2.81c0.95,0.06,1.9,0.05,2.84,0.05c17.83,0,35.66,0.01,53.5-0.01c5.34-0.01,6.18-1.06,5.24-6.38
	c-0.19-1.04-0.87-1.65-1.95-1.69c-1.52-0.05-3.03-0.09-4.55-0.09C1019.56,888.47,1011.21,888.47,1002.86,888.47z M1002.67,913.38
	c8.53,0,17.07,0.01,25.6,0c1.52,0,3.04,0,4.54-0.14c0.48-0.04,1.24-0.44,1.34-0.81c0.55-2.04,0.6-4.13-0.04-6.16
	c-0.12-0.38-0.88-0.74-1.37-0.79c-1.51-0.13-3.03-0.14-4.54-0.14c-14.98-0.01-29.97-0.01-44.95,0c-3.41,0-6.83-0.03-10.24,0.04
	c-2.31,0.04-2.66,0.43-2.76,2.61c-0.04,0.95-0.04,1.9,0,2.84c0.08,1.95,0.48,2.42,2.25,2.51c1.32,0.07,2.65,0.04,3.98,0.04
	C985.22,913.38,993.95,913.38,1002.67,913.38z M537.32,1047.26c-0.01,0-0.02,0-0.02,0c0,3.79,0,7.58,0,11.38
	c0,3.03-0.03,6.07,0.05,9.1c0.04,1.81,0.72,2.44,2.36,2.51c1.87,0.07,2.61-0.66,2.74-2.73c0.03-0.57,0.03-1.14,0.03-1.71
	c0-12.13,0-24.27,0-36.4c0-0.95,0-1.9-0.13-2.84c-0.16-1.1-0.94-1.51-2-1.57c-2.13-0.13-2.98,0.41-2.99,2.35
	C537.29,1033.98,537.32,1040.62,537.32,1047.26z M548.57,1003.07c0,3.88-0.05,7.09,0.02,10.3c0.04,2.23,0.49,2.74,2.61,2.77
	c5.1,0.06,10.19,0.02,15.29,0c0.53,0,1.25-0.04,1.29-0.74c0.03-0.49-0.2-1.09-0.52-1.48c-3.54-4.42-7.03-8.88-10.72-13.18
	c-2.3-2.68-3.99-5.94-7.11-7.89C547.33,996.33,549.27,1000.14,548.57,1003.07z M797.65,993.01c-0.33,0.09-0.78,0.07-0.96,0.28
	c-5.65,6.86-11.27,13.74-16.88,20.63c-0.48,0.59-0.84,1.24-0.07,2.24c5.27,0,10.74,0.01,16.22-0.01c1.25,0,2.28-0.42,2.28-1.88
	c-0.03-6.99-0.1-13.98-0.18-20.96C798.06,993.21,797.79,993.11,797.65,993.01z M809.64,1047.87c0.01,0,0.02,0,0.03,0
	c0-2.66,0.01-5.32,0-7.98c-0.02-4.37-0.02-8.74-0.1-13.11c-0.02-1.33-0.72-1.78-2.32-1.79c-1.62-0.01-2.23,0.43-2.35,1.76
	c-0.08,0.94-0.1,1.9-0.1,2.85c-0.01,11.97-0.01,23.94,0,35.92c0,0.95-0.01,1.9,0.08,2.85c0.13,1.34,0.82,1.86,2.34,1.86
	c1.72,0,2.38-0.55,2.4-2.4C809.67,1061.17,809.64,1054.52,809.64,1047.87z M458.06,987.14c-0.4-0.04-0.81-0.08-1.21-0.13
	c-2.85,9.47-5.78,18.91-8.21,28.66c2.61,0.8,4.87,0.52,7.1,0.45c1.78-0.05,2.29-0.58,2.3-2.5
	C458.09,1004.79,458.06,995.96,458.06,987.14z M473.27,1015.69c-0.05-0.89,0.04-1.68-0.16-2.38c-2.4-8.34-4.84-16.68-7.31-25
	c-0.18-0.62-0.41-1.47-1.63-1.33c0,7.53-0.02,15.09,0.01,22.64c0.02,7.16-0.71,6.58,6.84,6.52
	C471.74,1016.14,472.45,1015.86,473.27,1015.69z M497.51,990.75c0,3.96-0.01,7.92,0,11.88c0.01,3.77,0.02,7.55,0.07,11.32
	c0.02,1.3,0.66,2.14,2.04,2.17c2.24,0.05,4.49,0.29,6.57-0.22c0.63-1.38,0.15-2.46-0.21-3.48
	C503.42,1005.2,501.47,997.75,497.51,990.75z M491.37,990.19c-2.29,1.81-2.23,4.23-3.06,6.15c-0.9,2.06-1.44,4.29-2.13,6.44
	c-0.7,2.15-1.47,4.28-2.07,6.46c-0.58,2.11-1.99,4.06-1.52,6.53c2.3,0.67,4.56,0.39,6.8,0.34c1.38-0.03,1.98-0.89,1.98-2.21
	C491.37,1006.17,491.37,998.44,491.37,990.19z M440.7,967.71c-1.75-0.27-3.33,0.41-4.92,0.97c-3.22,1.12-3.42,1.36-2.46,4.39
	c1.99,6.31,4.06,12.61,6.17,18.88c0.24,0.7,0.24,1.92,1.58,1.76C441.66,984.43,441.48,971.84,440.7,967.71z M481.5,967.86
	c-0.7,1.22-0.46,2.57-0.46,3.87c0.03,7.18,0.09,14.36,0.16,21.54c0,0.17,0.09,0.41,0.22,0.48c0.14,0.08,0.36-0.01,0.84-0.06
	c2.02-6.14,3.98-12.42,6.15-18.63c2.11-6.05,1.22-5.22-3.63-6.94C483.77,967.78,482.66,967.24,481.5,967.86z M432.07,990.47
	c-0.38,0.04-0.76,0.07-1.14,0.11c0,6.62,0,13.25,0,19.87c0,1.33,0.03,2.65,0.1,3.98c0.04,0.8,0.38,1.43,1.28,1.6
	c2.14,0.41,4.88,0.13,7.81-0.89C437.43,1006.91,434.75,998.69,432.07,990.47z M415.22,1015.65c1.19,0.27,1.74,0.47,2.29,0.49
	c1.32,0.06,2.65,0.07,3.97,0.03c2.72-0.08,3.03-0.3,3.06-2.88c0.06-6.8,0.04-13.6,0-20.4c0-0.6,0.23-1.59-1.35-1.64
	C420.6,999.16,417.99,1007.16,415.22,1015.65z M473.91,966.01c-0.52-0.13-1.06-0.32-1.61-0.4c-0.93-0.14-1.87-0.23-2.81-0.31
	c-2.96-0.23-3.51,0.33-2.72,3.04c1.93,6.69,3.88,13.38,5.91,20.04c0.24,0.77,0.1,1.96,1.34,2.21
	C474.83,985.66,474.77,970.26,473.91,966.01z M408.05,996.46c0-1.13,0.08-2.27-0.02-3.4c-0.2-2.2,0.6-4.47-0.5-6.6
	c-2.82,0.31-3.65,2.89-5.18,4.63c-1.12,1.26-1.99,2.75-2.9,4.18c-0.55,0.87-0.45,1.79,0.22,2.61c0.35,0.44,0.67,0.92,1.05,1.34
	c2.14,2.34,3.62,5.27,6.42,7c1.91-2.91,0.45-6.15,0.91-9.2C408.08,996.85,408.05,996.65,408.05,996.46z M514.31,1006.01
	c0.4,0.16,0.79,0.33,1.19,0.49c2.27-2.74,4.51-5.52,6.83-8.22c1.03-1.2,1.1-2.29,0.16-3.54c-0.79-1.06-1.45-2.21-2.27-3.24
	c-1.5-1.9-2.7-4.1-5-5.24c-1.9,2.07-0.8,4.58-0.89,6.87C514.15,997.41,514.24,1001.71,514.31,1006.01z M448.72,991.31
	c2.49-8.48,4.72-16.02,6.9-23.58c0.6-2.09,0.06-2.66-2.23-2.5c-1.13,0.08-2.26,0.2-3.38,0.37c-1.83,0.28-2.27,0.66-2.29,2.58
	c-0.08,5.86-0.08,11.72-0.05,17.58C447.67,987.25,447.32,988.79,448.72,991.31z M508.03,993.47c0-3.92,0-7.84,0-11.76
	c0-1.18-0.28-2.3-1.22-3.02c-1.6-1.22-3.16-2.58-5.33-3C502.1,980.4,504.79,988.78,508.03,993.47z M414.15,993.58
	c0.42,0.05,0.84,0.1,1.26,0.14c1.58-4.81,3.16-9.63,4.76-14.43c0.29-0.88,0.74-1.74,0.38-2.71c-0.07-0.17-0.19-0.33-0.27-0.46
	c-1.26-0.11-2.11,0.75-3.09,1.27c-2.21,1.18-3.23,2.9-3.08,5.52C414.29,986.46,414.15,990.02,414.15,993.58z M524.41,1008.04
	c-2.76,2.31-4.21,4.43-5.71,6.5c-0.47,0.65-0.03,1.54,0.79,1.57c5.39,0.18,5.17,0.45,5.16-4.4
	C524.65,1010.79,524.54,1009.88,524.41,1008.04z M403.98,1015.32c-1.25-2.29-3.02-4.16-4.75-6.07c-0.32-0.35-0.64-0.48-0.98-0.18
	c-0.25,0.23-0.57,0.55-0.59,0.85c-0.07,1.5-0.08,3-0.03,4.5c0.03,1.11,0.72,1.73,1.8,1.7
	C400.86,1016.07,402.39,1016.63,403.98,1015.32z M542.35,1008.01c-1.25,0.1-1.49,1.08-1.71,1.94c-0.46,1.78-0.85,3.59-1.14,5.4
	c-0.02,0.15,0.86,0.6,1.34,0.64c0.83,0.06,1.47-0.49,1.49-1.3C542.41,1012.47,542.35,1010.26,542.35,1008.01z M805.34,1007.77
	c-0.76,2.93-0.6,5.14-0.34,7.34c0.08,0.71,0.69,0.85,1.24,0.89c0.9,0.07,1.44-0.4,1.32-1.32
	C807.28,1012.48,806.68,1010.38,805.34,1007.77z"/>
<path d="M1650.26,1320.41c0-46.55,0-93.11,0-139.66c0-7.76-0.36-7.2,7-7.21c19.57,0,39.14-0.01,58.72,0
	c13.84,0.01,27.24,2.3,39.85,8.21c12.71,5.96,23.74,14.24,33.23,24.58c13.86,15.1,23.19,32.79,29.5,52.15
	c4.37,13.41,7.02,27.16,8.31,41.22c1.36,14.82,1.32,29.6-0.23,44.38c-2.67,25.43-9.65,49.52-23.07,71.48
	c-9.97,16.32-22.88,29.76-39.48,39.5c-10.11,5.94-20.93,9.74-32.55,11.48c-4.91,0.73-9.81,0.99-14.75,0.99c-19.95,0-39.9,0-59.86,0
	c-1.33,0-2.66,0.03-3.99-0.04c-2.08-0.11-2.53-0.59-2.64-2.85c-0.08-1.71-0.05-3.42-0.05-5.13c0-46.36,0-92.73,0-139.09
	C1650.25,1320.41,1650.26,1320.41,1650.26,1320.41z M1657.15,1320.42C1657.15,1320.42,1657.15,1320.42,1657.15,1320.42
	c0.01,43.51,0,87.01,0.01,130.52c0,1.9,0.04,3.8,0.11,5.69c0.04,1.12,0.76,1.71,1.81,1.8c1.13,0.09,2.28,0.09,3.42,0.09
	c19.38,0,38.76-0.05,58.13,0.01c10.42,0.03,20.36-2.2,29.9-6.18c16.72-6.97,30.18-18.17,40.88-32.67
	c17.03-23.09,25.43-49.41,28.41-77.66c1.38-13.06,1.4-26.13,0.26-39.25c-1.43-16.38-4.81-32.27-10.64-47.62
	c-6.2-16.31-14.77-31.21-26.92-43.89c-10.13-10.57-21.86-18.78-35.68-23.82c-8.81-3.21-17.96-4.93-27.32-5.01
	c-18.43-0.15-36.85-0.1-55.28-0.08c-7.76,0.01-7.07-0.84-7.07,6.97C1657.14,1233.03,1657.15,1276.73,1657.15,1320.42z"/>
<path d="M581.79,1319.98c0.18,26.98-3.84,52.15-12.87,76.44c-5.73,15.4-13.39,29.74-23.91,42.47c-7.07,8.56-15.25,15.87-24.62,21.82
	c-12.16,7.72-25.53,11.56-39.88,11.86c-16.56,0.34-31.92-3.68-45.8-13c-12.82-8.61-23.08-19.64-31.43-32.55
	c-10.84-16.77-17.83-35.12-22.43-54.46c-5.04-21.22-6.62-42.76-5.51-64.47c1.29-25.41,6.38-50.02,16.82-73.37
	c6.72-15.03,15.34-28.81,27.1-40.46c8.99-8.91,18.96-16.5,31.02-20.69c25.41-8.82,49.69-6.53,72.38,8.38
	c12.9,8.48,23.04,19.69,31.33,32.63c10.35,16.15,17.2,33.76,21.72,52.32C580.06,1284.7,582.07,1302.77,581.79,1319.98z
	 M574.84,1319.5c0.41-13.91-1.4-29.34-4.78-44.59c-4.05-18.28-10.4-35.68-20.27-51.69c-8.18-13.26-18.39-24.61-31.31-33.42
	c-16.37-11.16-34.39-14.47-53.76-11.21c-12.69,2.14-23.64,7.94-33.5,16.01c-13.31,10.9-23.33,24.38-30.83,39.75
	c-12.2,25-17.36,51.67-18.3,79.27c-0.42,12.16,0.31,24.28,1.99,36.36c2.53,18.16,7.22,35.68,14.85,52.37
	c7.03,15.35,16.25,29.17,28.87,40.54c13.21,11.9,28.21,19.73,46.34,20.7c9.99,0.53,19.69-0.58,29.1-4
	c12.21-4.44,22.38-11.96,31.36-21.15c13.22-13.55,22.35-29.64,28.73-47.35C571.44,1368.53,575.12,1345.21,574.84,1319.5z"/>
<path d="M1377.33,1466.75c-1.53,0.91-2.69,0.76-3.82,0.76c-3.27-0.02-3.35-0.01-4.43-3.17c-4.1-12.03-8.14-24.08-12.2-36.12
	c-4.97-14.74-9.87-29.5-14.91-44.22c-1.56-4.56-0.69-4.5-6.37-4.5c-40.84,0-81.68,0-122.51,0c-0.19,0-0.38,0-0.57,0
	c-3.91,0.08-3.97,0.07-5.21,3.73c-5.66,16.71-11.3,33.42-16.93,50.14c-3.21,9.53-6.41,19.06-9.62,28.59
	c-0.42,1.26-0.91,2.49-1.34,3.75c-0.42,1.23-1.26,1.85-2.56,1.79c-1.49-0.06-3.04,0.34-4.45-0.54c-0.49-2.02,0.65-3.71,1.23-5.45
	c8.76-26.07,17.6-52.12,26.4-78.18c23.08-68.29,46.15-136.58,69.24-204.87c0.61-1.8,1.29-3.57,1.93-5.35
	c0.67-1.87,2.26-1.74,3.79-1.74c1.42,0,2.64,0.32,3.15,1.87c0.42,1.26,0.87,2.51,1.29,3.77c25.77,76.19,51.55,152.38,77.31,228.57
	c6.32,18.69,12.62,37.38,18.92,56.08C1376.22,1463.25,1376.72,1464.87,1377.33,1466.75z M1336.58,1370.18
	c0.29-2.57-1.03-4.78-1.8-7.07c-7.41-22.13-14.91-44.22-22.38-66.33c-12.09-35.77-24.18-71.53-36.28-107.3
	c-0.4-1.19-0.42-2.64-2.24-3.2c-20.51,60.75-41.02,121.49-61.51,182.25c-0.17,0.5-0.02,1.1-0.02,1.65
	C1217.15,1370.86,1331.83,1370.86,1336.58,1370.18z"/>
<path d="M185.89,1320.43c0-46.36,0-92.71,0-139.07c0-1.71-0.03-3.42,0.05-5.13c0.1-2.1,0.59-2.54,2.83-2.66
	c1.33-0.07,2.66-0.04,3.99-0.04c21.47,0,42.94-0.03,64.4,0.02c7.41,0.01,14.8,0.46,22.1,1.9c25.33,5.01,42.61,19.73,52.42,43.43
	c3.95,9.55,6.04,19.61,6.78,29.87c0.85,11.76,0.84,23.54-0.95,35.25c-1.33,8.67-3.45,17.14-7.16,25.1
	c-11.24,24.09-30.24,37.87-56.39,41.93c-6.39,0.99-12.83,1.37-19.31,1.35c-18.05-0.07-36.1-0.02-54.15-0.02
	c-1.52,0-3.04-0.03-4.56,0.02c-2.87,0.1-3.07,0.32-3.16,3.42c-0.04,1.52-0.01,3.04-0.01,4.56c0,32.68,0,65.35,0.01,98.03
	c0,1.52-0.02,3.04,0,4.56c0.05,4.77-0.34,4.67-4.88,4.51c-1.43-0.05-1.94-0.99-1.97-2.27c-0.04-1.71-0.04-3.42-0.04-5.13
	c0-46.55,0-93.09,0-139.64C185.88,1320.43,185.89,1320.43,185.89,1320.43z M192.75,1262.87c0.01,0,0.01,0,0.02,0
	c0,24.49,0,48.98,0,73.47c0,1.71,0.03,3.42,0.09,5.12c0.04,1.11,0.71,1.72,1.78,1.78c1.32,0.08,2.65,0.09,3.98,0.09
	c19.93,0.01,39.87-0.05,59.8,0.04c7.26,0.03,14.39-0.73,21.43-2.44c22.27-5.41,37.86-18.59,46.1-40.04
	c6.63-17.25,6.96-35.23,5.28-53.33c-0.69-7.38-2.35-14.6-4.99-21.56c-7.12-18.78-19.72-32.16-38.77-39.06
	c-8.27-3-16.91-4.43-25.68-4.49c-21.45-0.15-42.91-0.08-64.36-0.09c-0.95,0-1.9,0.02-2.84,0.1c-1.08,0.09-1.71,0.73-1.75,1.82
	c-0.06,1.71-0.09,3.41-0.09,5.12C192.75,1213.89,192.75,1238.38,192.75,1262.87z"/>
<path d="M904.96,1325.3c0,44.65,0,89.3,0,133.96c0,1.71,0.03,3.42-0.04,5.13c-0.11,2.63-0.53,3.03-2.94,3.11
	c-3.59,0.12-4-0.23-4.11-3.66c-0.06-1.9-0.02-3.8-0.02-5.7c0-89.3,0-178.61-0.01-267.91c0-2.09-0.08-4.17-0.18-6.26
	c-0.04-0.84-0.63-1.41-1.44-1.46c-1.7-0.12-3.41-0.15-5.12-0.15c-19.76-0.01-39.52-0.01-59.28-0.01c-1.14,0-2.28-0.01-3.42,0
	c-5.65,0.03-5.49,0.13-5.38-5.81c0.04-2.4,0.59-2.85,3.12-2.98c0.57-0.03,1.14-0.02,1.71-0.02c0.95,0,1.9,0,2.85,0
	c47.12,0,94.25,0,141.37,0c1.33,0,2.66-0.03,3.99,0.01c3.44,0.11,3.74,0.43,3.77,4.09c0.01,0.95,0.01,1.91-0.11,2.84
	c-0.13,1.05-0.76,1.72-1.87,1.76c-1.71,0.06-3.42,0.09-5.13,0.09c-20.52,0.01-41.04-0.01-61.56,0.01c-6.55,0-6.19-0.56-6.19,6.13
	C904.96,1234.09,904.96,1279.7,904.96,1325.3z"/>
<path d="M1018.33,1320.43c0-46.53,0-93.06,0-139.59c0-1.71,0-3.42,0.06-5.13c0.05-1.37,0.9-2.01,2.19-2.1
	c0.76-0.05,1.52-0.03,2.28-0.02c1.33,0.02,2.17,0.67,2.23,2.03c0.08,1.9,0.07,3.8,0.07,5.7c0,89.83-0.01,179.66,0.02,269.49
	c0,8.66-1.1,7.7,7.43,7.7c37.22,0.03,74.45,0.01,111.67,0.01c1.33,0,2.66-0.02,3.99,0c4.5,0.07,4.52,0.1,4.54,4.38
	c0.02,4.53,0.02,4.59-4.85,4.59c-41.59,0.02-83.18,0.01-124.78,0.01c-0.76,0-1.52,0.01-2.28-0.04c-1.9-0.12-2.43-0.57-2.52-2.33
	c-0.09-1.71-0.06-3.42-0.06-5.13C1018.33,1413.49,1018.33,1366.96,1018.33,1320.43z"/>
<path d="M516.03,730.65c-3.77,0-7.54,0.02-11.32-0.01c-1.09-0.01-1.79-0.71-1.81-1.77c-0.19-7.54-0.81-7,6.31-7
	c6.04,0,12.08-0.03,18.11,0.03c2.52,0.03,2.98,0.5,3.01,2.98c0.08,6.11,0.37,5.88-5.82,5.87c-2.83-0.01-5.66,0-8.49,0
	C516.03,730.72,516.03,730.68,516.03,730.65z"/>
<path d="M635.45,773.09c3.41,0,6.83-0.05,10.24,0.01c2.7,0.05,3.09,0.4,3.12,2.84c0.07,6.03,0.41,5.98-5.81,5.96
	c-6.26-0.02-12.51,0.02-18.77-0.05c-2.22-0.02-2.7-0.57-2.84-2.63c-0.04-0.57-0.03-1.14-0.03-1.71c-0.02-4.3,0.04-4.38,4.42-4.43
	C629.01,773.05,632.23,773.08,635.45,773.09C635.45,773.08,635.45,773.09,635.45,773.09z"/>
<path d="M595.78,730.7c-3.97,0-7.93,0.02-11.9-0.01c-1.33-0.01-2.07-0.78-2.14-2.11c-0.05-0.94-0.07-1.89-0.05-2.83
	c0.05-3.57,0.26-3.83,3.9-3.86c6.99-0.05,13.98-0.03,20.96,0.03c2.11,0.02,2.64,0.63,2.79,2.7c0.05,0.75,0.05,1.51,0.04,2.27
	c-0.07,3.43-0.4,3.79-3.96,3.85c-3.21,0.05-6.42,0.01-9.63,0.01C595.78,730.73,595.78,730.72,595.78,730.7z"/>
<path d="M634.6,730.72c-3.61,0-7.22,0.05-10.82-0.02c-1.74-0.03-2.34-0.67-2.37-2.46c-0.12-6.69-0.5-6.37,5.93-6.37
	c6.08,0.01,12.16-0.03,18.23,0.03c2.89,0.03,3.18,0.4,3.26,3.35c0.03,0.95,0.03,1.9-0.02,2.85c-0.11,2.11-0.55,2.58-2.81,2.62
	c-3.8,0.06-7.6,0.02-11.39,0.02C634.6,730.72,634.6,730.72,634.6,730.72z"/>
<path d="M516.57,781.9c-3.42,0-6.84,0.05-10.26-0.02c-3.16-0.06-3.42-0.4-3.49-3.74c-0.11-5-0.11-5.03,4.95-5.05
	c6.46-0.03,12.92-0.04,19.37,0.02c2.9,0.03,3.14,0.36,3.21,3.35c0.02,0.76,0.02,1.52-0.01,2.28c-0.11,2.58-0.5,3.07-2.95,3.12
	c-3.61,0.08-7.22,0.02-10.83,0.02C516.57,781.88,516.57,781.89,516.57,781.9z"/>
<path d="M556.05,730.7c-3.77,0-7.54,0.01-11.31-0.01c-1.32,0-2.07-0.7-2.24-2.01c-0.05-0.37-0.07-0.75-0.08-1.13
	c-0.08-5.83-0.06-5.71,5.47-5.7c6.22,0.02,12.44-0.03,18.66,0.03c3.02,0.03,3.32,0.4,3.43,3.17c0.22,5.55,0.14,5.65-5.45,5.68
	c-2.83,0.02-5.65,0-8.48,0C556.05,730.73,556.05,730.72,556.05,730.7z"/>
<path d="M555.81,781.87c-3.61,0-7.21,0.05-10.82-0.02c-1.74-0.03-2.45-0.71-2.5-2.4c-0.22-6.86-0.46-6.36,5.87-6.37
	c6.26,0,12.53-0.03,18.79,0.04c2.35,0.02,2.7,0.44,2.81,2.6c0.04,0.76,0.04,1.52,0.02,2.28c-0.06,3.55-0.29,3.82-3.93,3.89
	c-3.41,0.06-6.83,0.01-10.25,0.01C555.81,781.89,555.81,781.88,555.81,781.87z"/>
<path d="M595.78,773.13c3.77,0,7.54-0.01,11.31,0c1.33,0,2.09,0.7,2.19,2.03c0.07,0.94,0.1,1.88,0.09,2.83
	c-0.05,3.43-0.43,3.87-3.96,3.89c-6.98,0.05-13.95,0.04-20.93-0.04c-2.18-0.02-2.64-0.58-2.77-2.69c-0.05-0.94-0.05-1.89-0.02-2.83
	c0.08-2.9,0.3-3.17,3.33-3.22c3.58-0.06,7.17-0.01,10.75-0.01C595.78,773.1,595.78,773.12,595.78,773.13z"/>
<path d="M516.28,935c-3.78,0-7.55,0.02-11.33-0.01c-1.33-0.01-2.08-0.73-2.1-2.1c-0.09-6.5-0.66-6.45,5.81-6.44
	c6.23,0.01,12.46-0.02,18.7,0.06c2.53,0.03,2.88,0.5,2.98,3.02c0.03,0.75,0.03,1.51,0.01,2.27c-0.08,2.91-0.3,3.17-3.3,3.22
	c-3.59,0.06-7.18,0.01-10.76,0.01C516.28,935.03,516.28,935.01,516.28,935z"/>
<path d="M556.18,934.95c-3.96,0-7.92,0.02-11.88-0.01c-1.11-0.01-1.7-0.72-1.79-1.78c-0.08-0.94-0.1-1.88-0.09-2.83
	c0.04-3.52,0.27-3.82,3.93-3.85c6.98-0.05,13.96-0.04,20.94,0.04c2.17,0.02,2.57,0.58,2.69,2.74c0.31,5.62,0.2,5.74-5.31,5.78
	c-2.83,0.02-5.66,0-8.49,0C556.18,935.02,556.18,934.99,556.18,934.95z"/>
<path d="M635.05,883.85c-3.59,0-7.19,0.06-10.78-0.02c-2.5-0.05-2.81-0.46-2.9-3.1c-0.19-5.19-0.14-5.27,5.27-5.29
	c6.43-0.03,12.87-0.03,19.3,0.04c2.52,0.03,2.82,0.44,2.89,3.08c0.03,0.94,0.03,1.89-0.03,2.84c-0.11,1.8-0.58,2.37-2.4,2.4
	c-3.78,0.07-7.57,0.02-11.35,0.02C635.05,883.84,635.05,883.84,635.05,883.85z"/>
<path d="M595.41,883.85c-3.61,0-7.21,0.06-10.82-0.02c-2.32-0.05-2.74-0.52-2.88-2.58c-0.37-5.56-0.19-5.78,5.38-5.8
	c6.26-0.03,12.53-0.04,18.79,0.02c3.23,0.03,3.47,0.36,3.49,3.72c0.01,0.95-0.02,1.9-0.14,2.84c-0.13,1.06-0.79,1.73-1.87,1.74
	c-3.98,0.03-7.97,0.01-11.95,0.01C595.41,883.8,595.41,883.82,595.41,883.85z"/>
<path d="M555.96,883.81c-3.79,0-7.57,0.02-11.36-0.01c-1.35-0.01-2.03-0.8-2.12-2.13c-0.03-0.38-0.04-0.76-0.06-1.13
	c-0.17-4.88-0.03-5.06,4.93-5.09c5.87-0.04,11.74-0.01,17.61-0.01c0.95,0,1.9-0.01,2.84,0.08c1.81,0.17,2.16,0.82,2.19,3.81
	c0.03,3.61-0.28,4.36-2.1,4.45c-2.46,0.12-4.92,0.08-7.38,0.09c-1.52,0.01-3.03,0-4.55,0C555.96,883.85,555.96,883.83,555.96,883.81
	z"/>
<path d="M516.88,883.82c-3.98,0-7.96,0.02-11.94-0.01c-1.35-0.01-2.05-0.8-2.08-2.15c-0.01-0.38-0.03-0.76-0.04-1.14
	c-0.13-4.93-0.06-5.04,4.95-5.07c6.63-0.03,13.27-0.02,19.9,0.05c2.2,0.02,2.57,0.5,2.68,2.73c0.01,0.19,0.01,0.38,0.02,0.57
	c0.13,4.92,0.04,5.03-4.95,5.08c-2.84,0.03-5.69,0.01-8.53,0.01C516.88,883.86,516.88,883.84,516.88,883.82z"/>
<path d="M516.47,832.85c-3.4,0-6.81,0.06-10.21-0.02c-3.13-0.07-3.39-0.42-3.44-3.74c-0.01-0.76-0.01-1.51,0.03-2.27
	c0.11-2.15,0.46-2.58,2.79-2.59c7.37-0.05,14.75-0.05,22.13,0.01c2.14,0.02,2.46,0.5,2.58,2.81c0.28,5.63,0.17,5.76-5.36,5.81
	c-2.84,0.03-5.67,0-8.51,0C516.47,832.86,516.47,832.86,516.47,832.85z"/>
<path d="M595.78,832.82c-3.79,0-7.58,0.06-11.36-0.03c-2.1-0.05-2.59-0.68-2.71-2.77c-0.32-5.63-0.18-5.81,5.33-5.83
	c6.44-0.02,12.88-0.03,19.32,0.04c2.5,0.02,2.88,0.51,3,3.03c0.03,0.57,0.02,1.14,0.02,1.7c-0.05,3.58-0.24,3.81-3.93,3.88
	c-3.22,0.06-6.44,0.01-9.66,0.01C595.78,832.84,595.78,832.83,595.78,832.82z"/>
<path d="M634.56,824.23c3.96,0,7.93-0.05,11.89,0.02c1.8,0.03,2.24,0.59,2.36,2.43c0.04,0.56,0.03,1.13,0.03,1.7
	c0.02,4.27-0.08,4.44-4.42,4.47c-6.79,0.04-13.59,0.02-20.38-0.05c-2.13-0.02-2.57-0.59-2.64-2.77c-0.04-1.32,0-2.64,0.06-3.96
	c0.05-1.1,0.74-1.75,1.79-1.76c3.77-0.05,7.55-0.02,11.32-0.02C634.56,824.27,634.56,824.25,634.56,824.23z"/>
<path d="M556.45,824.25c3.78,0,7.56-0.03,11.33,0.02c1.28,0.02,2.14,0.7,2.16,2.08c0.09,6.29,0.69,6.57-5.78,6.53
	c-6.23-0.04-12.47,0.01-18.7-0.06c-2.51-0.03-2.9-0.53-3.02-3c-0.01-0.19-0.01-0.38-0.01-0.57c-0.12-4.87-0.01-5,4.96-5.05
	c3.02-0.03,6.05-0.01,9.07-0.01C556.45,824.2,556.45,824.23,556.45,824.25z"/>
<path d="M1579.27,720.62c13.27,0,26.53-0.02,39.8,0.01c4.96,0.01,5.05,0.15,4.92,5.09c-0.01,0.38-0.01,0.76-0.04,1.14
	c-0.15,1.83-0.67,2.4-2.37,2.54c-0.94,0.07-1.89,0.06-2.84,0.06c-26.53,0-53.07,0-79.6,0c-0.76,0-1.52,0.02-2.27-0.02
	c-2.77-0.14-3.11-0.52-3.18-3.47c-0.03-1.14-0.01-2.28,0.05-3.41c0.06-1.08,0.66-1.76,1.76-1.82c1.51-0.08,3.03-0.11,4.54-0.11
	C1553.12,720.62,1566.2,720.62,1579.27,720.62z"/>
<path d="M1578.89,856.2c-12.9,0-25.8,0-38.69,0c-1.52,0-3.03-0.02-4.55-0.09c-1.07-0.05-1.84-0.65-1.87-1.73
	c-0.23-7.4-0.79-7.07,5.71-7.07c26.18,0,52.35,0,78.53,0.01c1.33,0,2.65,0.03,3.98,0.09c1.1,0.04,1.81,0.69,1.87,1.73
	c0.1,1.7,0.1,3.41,0.01,5.11c-0.05,1.02-0.61,1.8-1.75,1.85c-1.51,0.07-3.03,0.11-4.55,0.11
	C1604.69,856.2,1591.79,856.2,1578.89,856.2z"/>
<path d="M1578.6,1014.73c-12.9,0-25.8,0-38.69-0.01c-1.51,0-3.03-0.05-4.54-0.14c-0.84-0.05-1.39-0.57-1.52-1.4
	c-0.11-0.74-0.15-1.51-0.17-2.26c-0.1-4.98-0.05-5.07,4.95-5.08c26.74-0.02,53.49-0.02,80.23,0c5.17,0,5.31,0.2,5.12,5.51
	c-0.01,0.38-0.03,0.76-0.05,1.14c-0.1,1.29-0.7,2.13-2.08,2.17c-1.52,0.04-3.03,0.07-4.55,0.07
	C1604.4,1014.74,1591.5,1014.73,1578.6,1014.73z"/>
<path d="M1578.55,1046.26c-13.08,0-26.16,0.02-39.24-0.01c-5.78-0.01-5.84-0.11-5.61-5.59c0.1-2.53,0.43-2.86,3.03-2.97
	c1.14-0.05,2.27-0.02,3.41-0.02c25.78,0,51.57,0,77.35,0c1.52,0,3.03,0.03,4.55,0.09c1.1,0.04,1.75,0.67,1.86,1.74
	c0.1,0.94,0.1,1.89,0.09,2.84c-0.03,3.54-0.27,3.88-3.92,3.89C1606.23,1046.28,1592.39,1046.25,1578.55,1046.26
	C1578.55,1046.25,1578.55,1046.25,1578.55,1046.26z"/>
<path d="M1579.14,982.86c-13.08,0-26.17,0-39.25-0.01c-1.51,0-3.03-0.05-4.54-0.14c-0.84-0.05-1.46-0.55-1.51-1.4
	c-0.38-7.15-0.83-7.06,5.69-7.06c26.17,0.01,52.34,0,78.5,0.01c1.14,0,2.28-0.02,3.41,0.06c1.79,0.13,2.37,0.7,2.5,2.4
	c0.06,0.75,0.06,1.52,0.05,2.27c-0.04,3.54-0.27,3.84-3.9,3.85C1606.44,982.87,1592.79,982.85,1579.14,982.86
	C1579.14,982.85,1579.14,982.86,1579.14,982.86z"/>
<path d="M1578.65,815.64c12.71,0,25.42,0,38.13,0c1.33,0,2.66-0.03,3.98,0.03c2.75,0.12,3.14,0.55,3.23,3.46
	c0.15,4.99,0.03,5.18-4.87,5.18c-26.94,0.02-53.88,0.01-80.82,0c-0.95,0-1.9-0.04-2.84-0.12c-1.12-0.09-1.67-0.81-1.72-1.87
	c-0.06-1.33-0.09-2.66-0.04-3.98c0.09-2.07,0.58-2.53,2.82-2.65c1.51-0.08,3.03-0.05,4.55-0.05
	C1553.61,815.64,1566.13,815.64,1578.65,815.64z"/>
<path d="M1579.3,879.17c12.51,0,25.03,0,37.54,0c1.52,0,3.04-0.03,4.55,0.04c1.89,0.09,2.4,0.58,2.55,2.29
	c0.03,0.38,0.04,0.76,0.05,1.14c0.13,4.9-0.01,5.12-4.98,5.13c-26.73,0.03-53.47,0.03-80.2,0c-5.23,0-5.32-0.17-5.12-5.52
	c0.1-2.62,0.39-2.97,2.95-3.04c2.65-0.07,5.31-0.03,7.96-0.03C1556.17,879.17,1567.74,879.17,1579.3,879.17z"/>
<path d="M1579.28,951.25c-13.47,0-26.93,0.02-40.4-0.01c-5.33-0.01-5.38-0.11-5.19-5.42c0.09-2.62,0.43-3.02,2.89-3.15
	c1.32-0.07,2.65-0.04,3.98-0.04c25.42,0,50.83,0,76.25,0c1.33,0,2.66-0.03,3.98,0.03c2.88,0.12,3.12,0.4,3.2,3.41
	c0.14,4.98,0.04,5.15-4.88,5.16C1605.83,951.27,1592.55,951.25,1579.28,951.25z"/>
<path d="M1578.66,784.01c12.53,0,25.05,0,37.58,0c1.52,0,3.04-0.03,4.55,0.03c2.82,0.12,3.11,0.47,3.19,3.45
	c0.14,5.03,0.05,5.19-4.84,5.2c-26.95,0.02-53.9,0.01-80.85,0c-0.95,0-1.9-0.03-2.84-0.13c-1.08-0.12-1.68-0.79-1.72-1.87
	c-0.05-1.33-0.09-2.66-0.03-3.98c0.08-2.05,0.58-2.53,2.82-2.65c1.51-0.08,3.04-0.05,4.55-0.05
	C1553.61,784,1566.14,784.01,1578.66,784.01z"/>
<path d="M1579.26,919.4c-13.48,0-26.96,0.02-40.44-0.01c-5.24-0.01-5.37-0.2-5.12-5.5c0.11-2.46,0.45-2.78,3.13-2.89
	c1.14-0.05,2.28-0.02,3.42-0.02c25.63,0,51.27,0,76.9,0c0.95,0,1.9-0.01,2.85,0.01c3.79,0.09,3.95,0.24,4,3.77
	c0.06,4.45-0.05,4.62-4.86,4.63C1605.84,919.42,1592.55,919.4,1579.26,919.4z"/>
<path d="M1578.43,760.83c-12.54,0-25.07,0-37.61,0c-1.52,0-3.04,0.03-4.56-0.06c-2.06-0.11-2.49-0.61-2.57-2.86
	c-0.03-0.95-0.03-1.9,0.01-2.85c0.1-2.15,0.48-2.52,2.8-2.64c1.33-0.07,2.66-0.04,3.99-0.04c25.64,0,51.28,0,76.92,0
	c0.95,0,1.9-0.02,2.85,0.01c3.49,0.11,3.71,0.35,3.73,4.05c0,0.57,0,1.14-0.03,1.71c-0.11,2.16-0.48,2.53-2.8,2.63
	c-1.52,0.07-3.04,0.04-4.56,0.04C1603.88,760.83,1591.15,760.83,1578.43,760.83z"/>
<path d="M1427.58,905.13c-21.28,0-42.55,0-63.83,0c-6.23,0-5.98,0.33-5.8-6.52c0-0.19,0.04-0.38,0.08-0.56
	c0.18-0.8,0.63-1.43,1.45-1.5c1.51-0.12,3.03-0.16,4.55-0.16c42.55-0.01,85.11-0.01,127.66-0.01c0.38,0,0.76-0.03,1.14,0.01
	c1.65,0.17,3.87-0.72,4.78,0.92c1.1,1.98,0.69,4.43,0.17,6.66c-0.09,0.4-0.79,0.89-1.25,0.94c-1.69,0.17-3.41,0.21-5.11,0.21
	C1470.14,905.14,1448.86,905.13,1427.58,905.13z"/>
<path d="M1427.57,917.99c20.88,0,41.77,0,62.65,0c1.14,0,2.28-0.01,3.42,0c4.41,0.07,4.51,0.17,4.49,4.42
	c-0.01,4.06-0.1,4.21-4.76,4.22c-43.48,0.02-86.95,0.02-130.43,0c-5.09,0-5.27-0.27-5.04-5.62c0.11-2.52,0.47-2.92,3.03-3
	c2.09-0.06,4.18-0.03,6.26-0.03C1387.32,917.99,1407.44,917.99,1427.57,917.99z"/>
<path d="M1428.17,969.88c-20.49,0-40.97,0-61.46,0c-1.14,0-2.28,0.01-3.41,0c-5.52-0.07-5.64-0.2-5.39-5.84
	c0.11-2.5,0.42-2.81,3.07-2.92c1.33-0.05,2.66-0.02,3.98-0.02c34.52,0,69.05,0,103.57,0c7.97,0,15.93,0,23.9,0
	c1.14,0,2.28-0.02,3.41,0.06c1.71,0.12,2.17,0.67,2.26,2.57c0.04,0.95,0.05,1.9,0.02,2.84c-0.08,2.78-0.46,3.16-3.37,3.29
	c-1.51,0.06-3.03,0.03-4.55,0.03C1469.52,969.88,1448.84,969.88,1428.17,969.88z"/>
<path d="M1428.16,1003.9c21.28,0,42.55,0.01,63.83-0.01c6.88-0.01,6.25,0.06,6.06,6.83c-0.03,1.09-0.76,1.71-1.82,1.79
	c-1.32,0.1-2.65,0.11-3.98,0.11c-42.74,0-85.48,0.01-128.23,0c-6.69,0-6.28,0.6-6.04-6.75c0.04-1.08,0.73-1.75,1.79-1.82
	c1.7-0.11,3.41-0.16,5.12-0.16C1385.98,1003.89,1407.07,1003.9,1428.16,1003.9z"/>
<path d="M1428.19,939.52c20.5,0,41,0,61.5,0c1.33,0,2.66-0.02,3.99,0c4.41,0.07,4.48,0.15,4.45,4.44c-0.03,3.89-0.15,4.11-4.26,4.13
	c-12.15,0.05-24.3,0.02-36.45,0.02c-30.37,0-60.74,0-91.12,0c-1.52,0-3.04,0.03-4.56-0.02c-3.69-0.12-3.81-0.26-3.86-3.94
	c-0.06-4.54-0.04-4.62,4.81-4.62C1384.53,939.51,1406.36,939.52,1428.19,939.52z"/>
<path d="M1427.55,1034.25c-20.88,0-41.76,0-62.64,0c-1.71,0-3.42-0.03-5.12-0.1c-1.1-0.04-1.74-0.67-1.82-1.76
	c-0.08-1.13-0.09-2.28-0.06-3.41c0.07-2.84,0.4-3.16,3.35-3.29c1.33-0.06,2.66-0.03,3.99-0.03c41.76,0,83.52,0,125.28,0
	c0.76,0,1.52-0.01,2.28,0c5.46,0.07,5.63,0.26,5.31,5.93c-0.12,2.16-0.48,2.53-2.8,2.63c-1.52,0.07-3.04,0.03-4.56,0.03
	C1469.69,1034.25,1448.62,1034.25,1427.55,1034.25z"/>
<path d="M1427.55,991.22c-20.31,0-40.62,0-60.93,0c-1.33,0-2.66,0.07-3.98-0.02c-1.46-0.1-3.42,0.61-4.21-0.89
	c-1.07-2.03-0.63-4.43-0.22-6.65c0.07-0.36,0.85-0.78,1.35-0.84c1.31-0.16,2.65-0.19,3.97-0.19c42.9-0.01,85.79-0.01,128.69-0.01
	c0.19,0,0.38,0,0.57,0c5.5,0.06,5.66,0.24,5.33,5.88c-0.12,2.09-0.57,2.56-2.8,2.67c-1.51,0.08-3.04,0.05-4.55,0.05
	C1469.69,991.23,1448.62,991.22,1427.55,991.22z"/>
<path d="M1446.1,873.34c-4.16,0-8.33,0.04-12.49-0.01c-4.21-0.05-4.32-0.15-4.38-4.59c-0.06-4.54-0.02-9.09-0.01-13.63
	c0-1.7-0.03-3.41,0.06-5.11c0.12-2.26,0.57-2.82,2.62-2.83c9.84-0.04,19.69-0.04,29.53,0c2.14,0.01,2.57,0.49,2.58,2.81
	c0.05,6.81,0.06,13.63,0,20.44c-0.02,2.44-0.48,2.85-3.14,2.88C1455.94,873.38,1451.02,873.33,1446.1,873.34
	C1446.1,873.34,1446.1,873.34,1446.1,873.34z M1446.22,864.34c0,0.01,0,0.02,0,0.03c3.21,0,6.43,0.02,9.64-0.01
	c1.12-0.01,1.71-0.71,1.76-1.79c0.06-1.32,0.1-2.65,0.05-3.97c-0.11-2.41-0.63-2.98-3.07-3.03c-4.35-0.08-8.7-0.05-13.05-0.04
	c-6.3,0.02-6.3,0.03-5.99,6.28c0.02,0.38,0.06,0.75,0.1,1.13c0.1,0.88,0.67,1.37,1.49,1.38
	C1440.18,864.37,1443.2,864.34,1446.22,864.34z"/>
<path d="M1372.3,847.15c4.92,0,9.84-0.04,14.77,0.02c2.31,0.03,2.8,0.47,2.82,2.58c0.05,7,0.05,14.01-0.01,21.01
	c-0.01,1.88-0.58,2.37-2.31,2.54c-0.19,0.02-0.38,0.02-0.57,0.02c-9.65,0-19.31,0.03-28.96-0.01c-2.17-0.01-2.83-0.58-2.85-2.62
	c-0.07-7-0.07-14.01,0-21.01c0.02-2.03,0.61-2.49,2.92-2.52C1362.83,847.11,1367.57,847.14,1372.3,847.15
	C1372.3,847.15,1372.3,847.15,1372.3,847.15z M1372.75,864.43c0,0.01,0,0.01,0,0.02c2.65,0,5.3,0.05,7.94-0.02
	c2.57-0.07,2.8-0.35,2.88-3.07c0.03-1.13,0.03-2.27-0.06-3.4c-0.13-1.65-0.79-2.33-2.54-2.36c-4.35-0.08-8.7-0.06-13.04-0.06
	c-7.3,0-6.5-0.42-6.46,6.93c0.01,1.47,0.95,1.94,2.21,1.95C1366.7,864.44,1369.73,864.43,1372.75,864.43z"/>
<path d="M1483.82,873.33c-4.74,0-9.48,0.05-14.22-0.02c-2.68-0.04-3.14-0.43-3.16-2.88c-0.05-7.02-0.01-14.03,0.01-21.05
	c0-1.33,0.67-2.12,2.05-2.2c0.76-0.04,1.52-0.06,2.27-0.06c8.72,0,17.45-0.03,26.17,0.01c3.95,0.02,4.06,0.13,4.1,4.26
	c0.06,6.07,0.06,12.14-0.01,18.21c-0.04,3.28-0.45,3.67-3.56,3.71C1492.93,873.38,1488.38,873.34,1483.82,873.33
	C1483.82,873.34,1483.82,873.33,1483.82,873.33z M1483.95,864.41c0,0.02,0,0.04,0,0.06c1.7,0,3.4,0,5.09,0
	c6.42,0,5.8,0.25,5.77-5.81c-0.01-2.64-0.38-3.04-2.91-3.08c-4.72-0.08-9.43-0.07-14.15-0.04c-4.95,0.04-5.1,0.22-5.03,5.09
	c0.01,0.57,0.04,1.13,0.06,1.7c0.05,1.35,0.75,2.07,2.1,2.08C1477.92,864.42,1480.94,864.41,1483.95,864.41z"/>
<path d="M1409.38,847.16c4.94,0,9.87-0.04,14.81,0.02c2.14,0.03,2.67,0.53,2.69,2.75c0.07,6.83,0.08,13.67,0.01,20.5
	c-0.02,2.34-0.65,2.86-3.22,2.88c-9.49,0.04-18.99,0.04-28.48-0.01c-2.31-0.01-2.89-0.51-2.9-2.53c-0.06-7.02-0.06-14.05,0-21.07
	c0.02-2.08,0.51-2.51,2.86-2.54C1399.89,847.11,1404.63,847.15,1409.38,847.16C1409.38,847.15,1409.38,847.16,1409.38,847.16z
	 M1410.25,855.53c-2.09,0-4.18,0-6.26,0c-5.43-0.01-5.61-0.24-5.52,5.75c0.01,0.57,0.06,1.14,0.17,1.69
	c0.16,0.83,0.75,1.37,1.55,1.38c6.26,0.03,12.52,0.03,18.78,0c0.78,0,1.53-0.38,1.61-1.27c0.19-2.26,0.87-4.8-0.38-6.68
	c-1.1-1.65-3.53-0.76-5.38-0.86C1413.29,855.46,1411.77,855.53,1410.25,855.53z"/>
<path d="M997.59,641.66c-1.9,0-3.79,0.05-5.69-0.02c-1.34-0.04-2.05-0.85-2.08-2.18c-0.12-6.72-0.62-6.52,5.78-6.48
	c3.03,0.02,6.07,0.03,9.1,0.11c1.09,0.03,1.67,0.79,1.82,1.82c0.08,0.56,0.07,1.13,0.08,1.7c0.1,4.82-0.12,5.05-5.03,5.12
	c-1.33,0.02-2.66,0-3.98,0C997.59,641.71,997.59,641.68,997.59,641.66z"/>
<path d="M998.17,605.08c-2.07,0-4.14,0.04-6.21-0.02c-1.3-0.04-2.06-0.78-2.12-2.11c-0.04-0.94-0.06-1.88-0.05-2.82
	c0.04-3.64,0.11-3.75,3.86-3.8c3.58-0.04,7.15-0.01,10.73,0.05c1.29,0.02,2.12,0.66,2.18,2.05c0.03,0.75,0.06,1.5,0.05,2.26
	c0,4.19-0.19,4.38-4.49,4.46c-1.32,0.03-2.63,0-3.95,0C998.17,605.13,998.17,605.1,998.17,605.08z"/>
<path d="M998.34,715.08c-1.31,0-2.63,0.02-3.94,0c-4.65-0.07-4.66-0.09-4.61-4.74c0.04-3.69,0.2-3.93,3.72-4
	c3.57-0.07,7.14-0.04,10.7,0.06c1.73,0.05,2.24,0.71,2.38,2.49c0.02,0.19,0.01,0.38,0.02,0.56c0.26,5.5,0.16,5.59-5.45,5.64
	C1000.21,715.09,999.27,715.08,998.34,715.08z"/>
<path d="M998.07,678.35c-2.07,0-4.15,0.03-6.22-0.01c-1.36-0.03-2.01-0.85-2.03-2.17c-0.07-6.31-0.75-6.39,5.89-6.36
	c2.83,0.01,5.66-0.02,8.48,0.09c1.74,0.07,2.26,0.71,2.38,2.51c0.06,0.94,0.05,1.89,0.03,2.83c-0.08,2.65-0.41,3-2.87,3.15
	c-0.38,0.02-0.75,0.02-1.13,0.02c-1.51,0-3.02,0-4.53,0C998.07,678.39,998.07,678.37,998.07,678.35z"/>
<path d="M998.15,751.61c-2.25,0-4.51,0.05-6.76-0.03c-0.79-0.03-1.34-0.59-1.47-1.44c-0.03-0.19-0.09-0.37-0.09-0.56
	c-0.09-6.53-0.64-6.39,5.82-6.36c3.01,0.01,6.03,0.01,9.03,0.11c1,0.03,1.75,0.66,1.83,1.77c0.07,0.94,0.11,1.88,0.1,2.82
	c-0.04,3.44-0.35,3.76-3.93,3.87c-1.5,0.05-3.01,0.01-4.52,0.01C998.15,751.74,998.15,751.67,998.15,751.61z"/>
<path d="M997.97,568.11c-1.33,0-2.66,0.04-3.98-0.01c-1.29-0.05-3.02,0.44-3.66-0.86c-1.02-2.06-0.72-4.4-0.14-6.6
	c0.1-0.37,0.89-0.79,1.37-0.8c4.36-0.08,8.72-0.11,13.07-0.06c1.01,0.01,1.79,0.65,1.86,1.76c0.08,1.32,0.13,2.65,0.08,3.97
	c-0.07,1.81-0.61,2.43-2.34,2.51c-2.08,0.09-4.17,0.02-6.26,0.02C997.97,568.07,997.97,568.09,997.97,568.11z"/>
</svg>
